<?xml version="1.0" encoding="UTF-8"?>
<svg id="Capa_2" data-name="Capa 2" xmlns="http://www.w3.org/2000/svg" xmlns:xlink="http://www.w3.org/1999/xlink" viewBox="0 0 2157.76 1463.91">
  <defs>
    <style>
      .cls-1 {
        fill: url(#Degradado_sin_nombre_11);
      }

      .cls-2 {
        fill: #0c0c0c;
      }
    </style>
    <linearGradient id="Degradado_sin_nombre_11" data-name="Degradado sin nombre 11" x1="0" y1="731.96" x2="2157.76" y2="731.96" gradientUnits="userSpaceOnUse">
      <stop offset="0" stop-color="#ca9f33"/>
      <stop offset=".49" stop-color="#f8d974"/>
      <stop offset="1" stop-color="#cba136"/>
    </linearGradient>
  </defs>
  <g id="Layer_1" data-name="Layer 1">
    <rect class="cls-1" width="2157.76" height="1463.91"/>
    <g>
      <path class="cls-2" d="M520.74,406.12l134.43,248.7,133.9-248.7h35.98v346.09c0,.11-1.39,1.5-1.5,1.5h-40.47v-317.62l-139.81,260.07c-8.13,1.56-10.18,2.05-14.26-4.71-43.95-72.8-79.51-154.36-122.58-228.07l-16.15-28.29-.05,264.22c1.48,18.18,2.3,36.36,5.04,54.39h-18.99c3.78-21.62,4.42-43.58,6.04-65.38l-.04-282.21h38.48Z"/>
      <path class="cls-2" d="M1681.5,721.75c-2.07,17.79-10.76,34.96-30.49,36.94-31.77,3.19-41.88-20.35-42.47-47.93-29.67,29.15-63.39,55.33-107.96,46.48-37.46-7.44-49.44-46.5-30.75-77.75,24.24-40.52,95.19-55.8,138.71-61.63-.11-36.26,5.7-84.13-39.93-93.42-42.46-8.64-90.74,13.61-79.98,63.46-2.14-.11-6.07.85-6.85-1.64-1.24-3.94-1.52-15.49-1.13-19.81,2.93-32.73,40.14-49.81,69.4-50.49,46.59-1.09,88.67,17.1,92.47,68.47,3.36,45.49-3.43,95.44-.03,140.86.76,10.15,4.65,24.6,17.86,20.76,6.13-1.78,9.27-7.94,11.64-13.33,2.62-5.94.86-12.78,9.51-10.96ZM1608.55,623.86c-36.41,7.45-93.36,20.01-105.23,61.13-5.76,19.93-3.18,46.49,18.61,54.91,31.21,12.05,66.54-17.45,86.62-38.63v-77.41Z"/>
      <path class="cls-2" d="M1088.92,721.79c.22-.21,5.81-.46,5.97.52-1.09,18.38-10.75,34.66-30.52,36.37-30.93,2.68-41.51-20.85-41.47-47.93-29.93,28.6-63.49,55.32-107.96,46.48-46.27-9.2-50.33-61.38-20.45-91.42,30.45-30.61,87.15-41.89,128.4-47.96-.41-31.47,5.22-77.51-31.45-90.9-26.44-9.66-67.34-3.6-83.29,21.67-7.89,12.49-7.71,25.14-5.18,39.27-1.34-.22-6.69.33-6.99.01-.33-.35-.94-8.02-1.04-9.45-4.62-66.01,86.34-74.58,129.88-48.9,22.35,13.18,30.52,34.82,32.05,59.86,2.75,44.92-3.83,94.59-.03,138.86,2.18,25.34,23.21,23.61,30.73.68.56-1.71,1.07-6.91,1.33-7.16ZM1022.92,623.86c-41.07,7.69-104.72,23.16-107.98,74.37-.89,14.01,2.39,30.98,15.12,38.91,30.97,19.28,72.35-13.83,92.85-35.87v-77.41Z"/>
      <path class="cls-2" d="M1421.5,534.13c1,1.58-1.42,17.05-1.88,20.29-.2,1.43.94,2.94-1.44,2.52-15.25-22.87-46.34-40.85-74.24-32.23-30.43,9.4-31.8,49.49-8.69,68.18,33.13,26.79,101.33,35.54,106.28,89.54,7.14,77.85-98.96,100.81-146.29,45.33-3.25-3.81-14.98-20.65-15.35-24.67-.19-2.06,4.24-4.04,5.72-3.18.92.53,8.95,14.7,11.63,17.86,19.29,22.75,48.75,33.71,78.3,27.3,36.54-7.92,50-46.9,20.62-72.23-28.13-24.25-93.64-40.38-105.44-78.4-10.22-32.95,6.81-63.63,39.05-73.91s64.3-1.52,91.73,13.6Z"/>
      <path class="cls-2" d="M1164.83,515.99v30.96c23.85-24.74,58.9-41.53,92.02-23.33l-3.08,19.34c-3.47.6-4.64-2.71-7.07-4.42-29.76-20.82-59.26-6.53-81.87,16.9v198.27h-33.98v-227.73l33.98-9.99Z"/>
      <path class="cls-2" d="M781.07,972.45v50.94h-9.99v-136.84h61.46c16.31,0,32.94,22.31,34.47,37.47,2.08,20.6-12.28,48.43-35.47,48.43h-50.47ZM781.07,962.46h52.47c2.04,0,11.14-5.28,12.99-6.99,19.88-18.43,8.66-59.93-18.98-59.93h-46.47v66.92Z"/>
      <path class="cls-2" d="M1194.81,977.44h-87.94c.94,31.04,37.12,52.85,62.97,31.47,2.71-2.24,8-10.44,8.67-10.57,3.56-.69,9.51.96,7.53,5.77-4.46,10.83-22.63,19.96-33.82,21.14-63.97,6.75-76.47-86.72-20.38-102.27,35.03-9.71,65,19.95,62.98,54.45ZM1184.82,969.45c-4.65-52.04-74.99-53-77.95,0h77.95Z"/>
      <path class="cls-2" d="M982.72,921.79c73.27-8.94,75.05,110.25,1.74,103.58-56.81-5.16-57.2-96.82-1.74-103.58ZM985.7,930.76c-55,7.21-38.27,101.92,15.77,83.68,45.15-15.24,29.82-89.65-15.77-83.68Z"/>
      <path class="cls-2" d="M1298.74,1000.43c-15.01,33.74-62.87,32.79-81.97,2.51-31.31-49.63,26.02-105.41,68.9-72.85,5.42,4.12,18.19,16.55,4.43,17.33-4.38.25-7.17-5.88-10.82-8.96-32.29-27.22-75.18,15.65-56.2,55.17,11.01,22.91,42.15,31.2,60.71,12.31,5.98-6.08,3.06-10.02,14.95-5.52Z"/>
      <path class="cls-2" d="M1333.72,888.55v34.96h23.98v7.99h-23.98v74.41c0,5.03,7.08,8.95,11.6,9.43,6.98.74,11-3.57,17.28-3.84.25,1.7,2.86,6.66,2.02,7.8-.44.6-11.84,4.79-13.5,5-6.6.87-14.98.74-20.43-3.39-2.15-1.63-6.97-7.49-6.97-10.01v-79.41h-13.99v-7.99h13.99v-34.96h9.99Z"/>
      <path class="cls-2" d="M1062.89,924.01c.77-2.5,10.99-1.97,10.99,0v108.87c0,8.73-10.99,20.02-19.01,22.95-9.8,3.58-24.09,2.59-30.87-5.81,4.86-8.55,5.05-4.95,11.08-3.34,8.89,2.37,17.04,2.35,23.33-5.29.79-.96,4.48-7.07,4.48-7.51v-109.87Z"/>
      <path class="cls-2" d="M897,922.51v22.97l7.97-10.52c7.9-7.7,18.72-13.17,30.01-12.46-.28,1.7.4,9.59-.01,9.98s-8.45,1.06-10.76,1.73c-7.96,2.28-15.75,7.61-20.64,14.33-.87,1.19-5.57,9.83-5.57,10.42v64.42h-10.99v-99.38c0-2.19,8.12-1.43,9.99-1.5Z"/>
      <path class="cls-2" d="M1073.89,882.56v17.48c0,2.2-10.99,2.2-10.99,0v-17.48h10.99Z"/>
    </g>
  </g>
</svg>