<?xml version="1.0" encoding="UTF-8"?>
<svg id="Capa_2" data-name="Capa 2" xmlns="http://www.w3.org/2000/svg" viewBox="0 0 3234 1192.34">
  <defs>
    <style>
      .cls-1 {
        fill: #480517;
      }
    </style>
  </defs>
  <g id="Layer_1" data-name="Layer 1">
    <g>
      <polygon class="cls-1" points="3.1 1028 112.6 1038.54 126.03 1039.37 126.03 1039.99 112.6 1041.02 3.1 1052.8 3.1 1072.84 147.73 1072.84 147.73 1059.41 41.74 1061.89 27.07 1062.71 26.86 1061.89 41.74 1060.03 147.73 1046.39 147.73 1032.96 41.74 1020.36 26.86 1018.71 27.07 1018.09 41.74 1018.71 147.73 1021.19 147.73 1007.76 3.1 1007.76 3.1 1028"/>
      <path class="cls-1" d="M3.1,984.66l144.63,16.32v-14.05l-36.57-3.35v-15.61l36.57-3.35v-14.05L3.1,966.89v17.77ZM24.79,975.36l14.67-.83,60.12-5.51v13.49l-60.12-5.51-14.67-.83v-.83Z"/>
      <path class="cls-1" d="M141.74,895.03c-1.51.21-3.03.38-4.54.52-1.51.14-3.1.24-4.75.31-1.65.07-3.51.1-5.58.1h-23.35c-6.2,0-11.36,1.14-15.5,3.41s-6.95,5.61-8.47,10.02h-.41c-1.65-4.41-4.47-7.75-8.47-10.02-3.99-2.27-9.16-3.41-15.5-3.41h-22.73c-9.78,0-17.11,2.31-22,6.92-4.89,4.62-7.33,11.19-7.33,19.73v21.28h144.63v-14.05h-62.6v-7.23c0-4.41,1.21-7.61,3.62-9.61,2.41-2,6.3-3,11.67-3h26.45c4.13,0,7.64-.14,10.54-.41,2.89-.27,6.34-.69,10.33-1.24v-14.05h-.83c-1.93.28-3.65.52-5.17.72ZM73.55,929.85H14.67v-7.23c0-4.41,1.17-7.61,3.51-9.61,2.34-2,6.2-3,11.57-3h28.51c5.37,0,9.26,1,11.67,3,2.41,2,3.62,5.2,3.62,9.61v7.23Z"/>
      <path class="cls-1" d="M122.31,839.66h-14.46c-4.55,0-8.71.62-12.5,1.86-3.79,1.24-7.33,2.82-10.64,4.75-3.31,1.93-6.44,4.1-9.4,6.51-2.96,2.41-5.82,4.79-8.57,7.13-4.27,3.72-8.71,6.92-13.33,9.61-4.61,2.69-9.74,4.03-15.39,4.03h-11.36c-5.65,0-9.57-.83-11.78-2.48-2.2-1.65-3.31-4.06-3.31-7.23s1.1-5.34,3.31-6.92c2.21-1.58,6.13-2.38,11.78-2.38h19.01v-14.26h-17.36c-9.78,0-16.94,2.07-21.49,6.2-4.55,4.13-6.82,9.99-6.82,17.56s2.24,13.26,6.71,17.46c4.48,4.2,11.67,6.3,21.59,6.3h10.54c4.13,0,7.92-.52,11.36-1.55,3.44-1.03,6.71-2.34,9.81-3.93,3.1-1.58,5.99-3.41,8.68-5.48,2.69-2.07,5.27-4.2,7.75-6.4,2.48-2.07,4.96-4.1,7.44-6.1,2.48-2,5.03-3.75,7.64-5.27,2.62-1.51,5.34-2.75,8.16-3.72,2.82-.96,5.75-1.45,8.78-1.45h15.5c5.65,0,9.61.86,11.88,2.58,2.27,1.72,3.41,4.24,3.41,7.54s-1.14,5.65-3.41,7.44c-2.27,1.79-6.23,2.69-11.88,2.69h-23.14v14.26h21.49c9.92,0,17.15-2.13,21.69-6.4,4.54-4.27,6.82-10.26,6.82-17.98s-2.27-13.53-6.82-17.87c-4.55-4.34-11.78-6.51-21.69-6.51Z"/>
      <path class="cls-1" d="M147.73,820.12l-36.57-3.35v-15.61l36.57-3.35v-14.05L3.1,800.08v17.77l144.63,16.32v-14.05ZM24.79,809.38v-.83l14.67-.83,60.12-5.51v13.49l-60.12-5.51-14.67-.83Z"/>
      <path class="cls-1" d="M244.69,794.48c-4.3-3.94-10.64-5.92-19-5.92h-27.79c-8.36,0-14.67,2-18.91,6.01-4.24,4.01-6.37,9.71-6.37,17.12v18.47h125.5v-12.19h-46.97v-6.45c0-7.41-2.15-13.09-6.45-17.03ZM241.1,817.97h-58.44v-6.27c0-3.82,1.02-6.6,3.05-8.34,2.03-1.73,5.38-2.6,10.04-2.6h32.09c4.66,0,8.04.87,10.13,2.6,2.09,1.73,3.14,4.51,3.14,8.34v6.27Z"/>
      <path class="cls-1" d="M246.93,754.92c2.09-1.73,5.47-2.6,10.13-2.6h22.95c3.59,0,6.63-.12,9.14-.36,2.51-.24,5.5-.6,8.96-1.08v-12.19h-.72c-1.67.24-3.17.45-4.48.63-1.31.18-2.63.33-3.94.45-1.31.12-2.69.21-4.12.27-1.43.06-3.05.09-4.84.09h-20.26c-5.38,0-9.86.99-13.45,2.96-3.58,1.97-6.03,4.87-7.35,8.7h-.36c-1.43-3.82-3.88-6.72-7.35-8.7-3.46-1.97-7.95-2.96-13.45-2.96h-19.72c-8.49,0-14.85,2-19.09,6.01-4.24,4.01-6.37,9.71-6.37,17.12v18.47h125.5v-12.19h-54.32v-6.27c0-3.82,1.05-6.6,3.14-8.34ZM233.75,769.53h-51.09v-6.27c0-3.82,1.02-6.6,3.05-8.34,2.03-1.73,5.38-2.6,10.04-2.6h24.74c4.66,0,8.04.87,10.13,2.6,2.09,1.73,3.14,4.51,3.14,8.34v6.27Z"/>
      <path class="cls-1" d="M176.11,728.21c4.12,3.59,10.25,5.38,18.38,5.38h81.57c8.25,0,14.43-1.82,18.55-5.47,4.12-3.64,6.19-8.81,6.19-15.51s-2.06-11.83-6.19-15.42c-4.12-3.59-10.31-5.38-18.55-5.38h-81.57c-8.25,0-14.4,1.79-18.46,5.38-4.06,3.58-6.1,8.73-6.1,15.42s2.06,12.01,6.18,15.6ZM183.01,706.25c2.03-1.37,5.38-2.06,10.04-2.06h84.44c4.66,0,8.04.69,10.13,2.06,2.09,1.38,3.14,3.56,3.14,6.54s-1.04,5.14-3.14,6.45c-2.09,1.32-5.47,1.97-10.13,1.97h-84.44c-4.66,0-8.01-.66-10.04-1.97-2.03-1.31-3.05-3.46-3.05-6.45s1.02-5.17,3.05-6.54Z"/>
      <path class="cls-1" d="M287.62,671.59c-2.09,1.38-5.47,2.06-10.13,2.06h-20.08v12.37h18.65c8.37,0,14.58-1.85,18.64-5.56,4.06-3.7,6.1-8.84,6.1-15.42s-2.03-11.53-6.1-15.24c-4.06-3.7-10.28-5.56-18.64-5.56h-103.44v12.37h104.88c4.66,0,8.04.69,10.13,2.06,2.09,1.38,3.14,3.56,3.14,6.54s-1.04,4.99-3.14,6.36Z"/>
      <polygon class="cls-1" points="172.62 608.31 172.62 637.17 298.11 637.17 298.11 606.69 288.07 606.69 288.07 624.98 238.59 624.98 238.59 609.38 228.55 609.38 228.55 624.98 182.66 624.98 182.66 608.31 172.62 608.31"/>
      <path class="cls-1" d="M194.49,601.37h81.57c8.37,0,14.58-1.85,18.64-5.56,4.06-3.7,6.1-8.84,6.1-15.42s-2.03-11.68-6.1-15.33c-4.06-3.64-10.28-5.47-18.64-5.47h-24.02v12.37h25.46c4.66,0,8.04.69,10.13,2.06,2.09,1.38,3.14,3.56,3.14,6.54s-1.04,4.99-3.14,6.36c-2.09,1.38-5.47,2.06-10.13,2.06h-84.44c-4.54,0-7.86-.69-9.95-2.06-2.09-1.37-3.14-3.5-3.14-6.36s1.05-5.17,3.14-6.54c2.09-1.37,5.41-2.06,9.95-2.06h23.66v-12.37h-22.23c-8.36,0-14.55,1.82-18.55,5.47-4,3.65-6.01,8.82-6.01,15.51s2,11.68,6.01,15.33c4.01,3.65,10.19,5.47,18.55,5.47Z"/>
      <polygon class="cls-1" points="182.66 539.42 298.11 539.42 298.11 527.22 182.66 527.22 182.66 512.34 172.62 512.34 172.62 554.29 182.66 554.29 182.66 539.42"/>
      <polygon class="cls-1" points="221.2 1072.4 173.46 963.08 169.88 963.08 169.88 1077.12 173.46 1077.12 173.46 971.71 219.41 1077.12 222.83 1077.12 268.77 971.71 268.77 1077.12 272.35 1077.12 272.35 963.08 268.77 963.08 221.2 1072.4"/>
      <path class="cls-1" d="M329.23,963.08l-43.66,114.04h3.58l13.08-34.21h63.54l12.98,34.21h3.58l-43.5-114.04h-9.61ZM303.48,1039.65l28.03-73.31h5.21l27.82,73.31h-61.06Z"/>
      <path class="cls-1" d="M445.26,1025.32c4.56-1.41,8.42-3.5,11.57-6.27,3.15-2.77,5.51-6.16,7.09-10.18,1.57-4.02,2.36-8.58,2.36-13.69,0-6.3-1.2-11.87-3.58-16.7-2.39-4.83-6.27-8.61-11.65-11.32-5.38-2.71-12.68-4.07-21.91-4.07h-33.72v114.04h3.58v-49.69h30.47c1.04,0,2.06-.03,3.06-.07l31.32,49.76h4.07l-31.5-50.05c3.2-.34,6.15-.92,8.85-1.76ZM398.99,1024.18v-57.84h30.14c12.27,0,20.94,2.63,25.99,7.9,5.05,5.27,7.58,12.25,7.58,20.94,0,5.54-1.14,10.51-3.42,14.91-2.28,4.4-5.87,7.85-10.75,10.35-4.89,2.5-11.24,3.75-19.06,3.75h-30.47Z"/>
      <path class="cls-1" d="M539.64,1028.17c-3.1-2.33-6.68-4.34-10.75-6.03-4.07-1.68-8.39-3.18-12.95-4.48-5.76-1.74-11.03-3.56-15.8-5.46-4.78-1.9-8.61-4.45-11.49-7.66-2.88-3.2-4.32-7.63-4.32-13.28s1.38-10.26,4.16-14.17c2.77-3.91,6.49-6.87,11.16-8.88,4.67-2.01,9.72-3.01,15.15-3.01,5.97,0,10.97,1.01,14.99,3.01,4.02,2.01,7.22,4.48,9.61,7.41,2.39,2.93,4.02,5.7,4.89,8.31l3.1-1.14c-1.09-3.37-2.96-6.65-5.62-9.86-2.66-3.2-6.22-5.84-10.67-7.9-4.46-2.06-9.94-3.1-16.46-3.1-6.95,0-12.95,1.28-18,3.83-5.05,2.55-8.96,6.08-11.73,10.59-2.77,4.51-4.15,9.69-4.15,15.56,0,4.78.9,8.75,2.69,11.89,1.79,3.15,4.26,5.76,7.41,7.82,3.15,2.06,6.73,3.8,10.75,5.21,4.02,1.41,8.31,2.77,12.87,4.07,5.76,1.74,11.02,3.72,15.8,5.95,4.78,2.23,8.58,5.16,11.4,8.8,2.82,3.64,4.24,8.34,4.24,14.09,0,7.39-2.55,13.42-7.66,18.08-5.11,4.67-12.82,7.01-23.14,7.01-7.39,0-13.31-1.14-17.76-3.42-4.46-2.28-7.82-5.1-10.1-8.47-2.28-3.37-3.86-6.62-4.72-9.78l-3.1,1.3c1.08,4.24,3.01,8.17,5.78,11.81,2.77,3.64,6.62,6.54,11.57,8.72,4.94,2.17,11.16,3.26,18.65,3.26,8.36,0,15.01-1.33,19.96-3.99,4.94-2.66,8.53-6.19,10.75-10.59,2.22-4.4,3.34-9.15,3.34-14.26s-.87-9.07-2.61-12.54c-1.74-3.47-4.16-6.38-7.25-8.72Z"/>
      <path class="cls-1" d="M599.66,963.08l-43.66,114.04h3.58l13.08-34.21h63.54l12.98,34.21h3.58l-43.5-114.04h-9.61ZM573.91,1039.65l28.03-73.31h5.21l27.82,73.31h-61.06Z"/>
      <polygon class="cls-1" points="2002.36 729.5 2090.99 767.95 2002.36 806.4 2002.36 827.91 2116.41 827.91 2116.41 808.68 2039.35 808.68 2116.41 775.45 2116.41 760.62 2039.35 727.39 2116.41 727.39 2116.41 708 2002.36 708 2002.36 729.5"/>
      <path class="cls-1" d="M2002.36,657.53l114.04,40.57v-19.71l-27.86-9.78v-54.87l27.86-9.64v-19.88l-114.04,40.57v32.75ZM2018.49,637.98l54.09-18.72v43.74l-54.09-18.99v-6.03Z"/>
      <path class="cls-1" d="M2068.26,511.26c-2.01-5.05-4.73-9.18-8.15-12.38-3.42-3.2-7.14-5.51-11.16-6.92-4.02-1.41-8.04-2.12-12.06-2.12-6.3,0-12.06,1.44-17.27,4.32-5.21,2.88-9.39,7.31-12.54,13.28-3.15,5.97-4.72,13.52-4.72,22.65v44.48h114.04v-19.22h-45.13v-19.83l45.13-26.28v-21.83l-46.74,28.25c-.4-1.55-.86-3.01-1.41-4.38ZM2055.15,555.33h-36.66v-25.25c0-7.06,1.63-12.27,4.89-15.64,3.26-3.37,7.77-5.05,13.52-5.05,3.58,0,6.79.73,9.61,2.2,2.83,1.47,4.97,3.72,6.43,6.76,1.47,3.04,2.2,6.95,2.2,11.73v25.25Z"/>
      <path class="cls-1" d="M2100.77,402.49c-5.1-2.88-10.81-4.32-17.11-4.32-5.87,0-10.75,1.17-14.66,3.5-3.91,2.34-7.14,5.35-9.69,9.04-2.55,3.69-4.67,7.79-6.35,12.3-1.68,4.51-3.18,8.99-4.48,13.44-1.3,4.02-2.58,7.63-3.83,10.83-1.25,3.2-2.85,5.78-4.81,7.74-1.95,1.96-4.5,2.93-7.66,2.93s-5.7-.87-7.98-2.61c-2.28-1.74-3.99-4.04-5.13-6.92-1.14-2.88-1.65-6.16-1.55-9.86.11-3.26.71-6.33,1.79-9.21,1.09-2.88,2.58-5.32,4.48-7.33,1.9-2.01,4.05-3.34,6.44-3.99l-5.87-17.76c-4.99,1.74-9.23,4.4-12.71,7.98-3.48,3.58-6.08,7.96-7.82,13.12-1.74,5.16-2.61,10.94-2.61,17.35,0,7.6,1.25,14.31,3.75,20.12,2.5,5.81,6.17,10.37,11,13.68,4.83,3.31,10.73,4.97,17.68,4.97,5.32,0,9.75-.95,13.28-2.85,3.53-1.9,6.41-4.48,8.63-7.74,2.23-3.26,4.07-7.01,5.54-11.24,1.47-4.24,2.85-8.58,4.15-13.03,1.52-4.78,3.12-9.1,4.81-12.95,1.69-3.85,3.72-6.81,6.11-8.88,2.39-2.06,5.38-3.09,8.96-3.09,4.35,0,8.12,1.66,11.32,4.97,3.21,3.31,4.81,8.45,4.81,15.4,0,4.45-.73,8.28-2.2,11.49-1.47,3.21-3.37,5.76-5.7,7.66-2.33,1.9-5.08,3.18-8.23,3.83l6.03,17.76c5.43-1.3,10.13-3.85,14.09-7.66,3.97-3.8,7.01-8.61,9.12-14.42,2.12-5.81,3.18-12.3,3.18-19.47,0-8.58-1.52-15.8-4.56-21.67-3.04-5.87-7.11-10.24-12.22-13.12Z"/>
      <path class="cls-1" d="M2116.41,375.32l-27.86-9.78v-54.87l27.86-9.64v-19.88l-114.04,40.57v32.75l114.04,40.57v-19.71ZM2018.49,334.91l54.09-18.72v43.74l-54.09-18.99v-6.03Z"/>
      <polygon class="cls-1" points="2257.4 707.94 2141.16 707.94 2141.16 726.04 2235.32 767.23 2141.16 808.58 2141.16 826.84 2257.4 826.84 2257.4 810.24 2173.37 810.24 2257.4 773.37 2257.4 761.25 2173.37 724.38 2257.4 724.38 2257.4 707.94"/>
      <path class="cls-1" d="M2257.4,601.61v-16.94l-116.25,41.85v28.73l116.25,41.85v-16.94l-29.56-10.56v-57.53l29.56-10.46ZM2213.89,664.62l-58.79-21v-5.81l58.79-20.8v47.61Z"/>
      <path class="cls-1" d="M2257.4,506.81v-18.77l-48.32,29.42c-.43-1.91-.95-3.73-1.59-5.42-1.94-5.15-4.59-9.33-7.97-12.54-3.38-3.21-7.11-5.54-11.21-6.97-4.09-1.44-8.25-2.16-12.45-2.16-6.42,0-12.23,1.47-17.44,4.4-5.2,2.93-9.38,7.36-12.54,13.29-3.16,5.92-4.73,13.48-4.73,22.67v43.18h116.25v-16.61h-47v-22.91l47-27.57ZM2196.46,557.29h-41.35v-26.57c0-8.19,1.88-14.17,5.65-17.93,3.76-3.76,8.8-5.65,15.11-5.65,4.1,0,7.7.83,10.79,2.49,3.1,1.66,5.51,4.21,7.22,7.64,1.72,3.43,2.57,7.86,2.57,13.29v26.74Z"/>
      <path class="cls-1" d="M2155.11,472.54c4.87,3.21,10.69,4.82,17.44,4.82,5.42,0,9.94-1,13.53-2.99,3.6-1.99,6.53-4.71,8.8-8.14,2.27-3.43,4.15-7.28,5.65-11.54,1.49-4.26,2.91-8.61,4.23-13.04,1.44-5.09,3.07-9.6,4.9-13.53,1.83-3.93,4.04-7.03,6.64-9.3,2.6-2.27,5.89-3.4,9.88-3.4,4.87,0,9.11,1.86,12.7,5.56,3.6,3.71,5.4,9.44,5.4,17.19,0,5.21-.83,9.58-2.49,13.12-1.66,3.54-3.82,6.34-6.48,8.39-2.66,2.05-5.53,3.4-8.63,4.07l5.65,15.11c5.2-1.22,9.77-3.68,13.7-7.39,3.93-3.71,7-8.44,9.22-14.2,2.21-5.75,3.32-12.23,3.32-19.43,0-8.75-1.55-16.03-4.65-21.84-3.1-5.81-7.2-10.16-12.29-13.04-5.09-2.88-10.74-4.32-16.94-4.32-5.75,0-10.54,1.11-14.36,3.32-3.82,2.22-7,5.12-9.55,8.72-2.54,3.6-4.65,7.61-6.31,12.04-1.66,4.43-3.21,8.97-4.65,13.62-1.33,4.43-2.71,8.5-4.15,12.21-1.44,3.71-3.26,6.67-5.48,8.88-2.21,2.22-5.26,3.32-9.13,3.32-3.54,0-6.58-.97-9.13-2.91-2.54-1.94-4.51-4.54-5.89-7.81-1.38-3.26-2.02-6.95-1.91-11.04,0-3.99.66-7.58,1.99-10.79,1.33-3.21,3.07-5.87,5.23-7.97,2.16-2.1,4.46-3.49,6.89-4.15l-5.48-15.11c-4.76,1.66-8.83,4.23-12.21,7.72-3.38,3.49-5.98,7.78-7.8,12.87-1.83,5.09-2.74,10.85-2.74,17.27,0,7.64,1.3,14.36,3.9,20.18,2.6,5.81,6.34,10.32,11.21,13.53Z"/>
      <path class="cls-1" d="M2257.4,377.8l-29.56-10.56v-57.53l29.56-10.46v-16.94l-116.25,41.85v28.73l116.25,41.85v-16.94ZM2155.11,335.45l58.79-20.8v47.61l-58.79-21v-5.81Z"/>
      <polygon class="cls-1" points="2400.87 707.93 2279.42 707.93 2279.42 719.38 2386.47 766.23 2279.42 813.25 2279.42 824.7 2400.87 824.7 2400.87 814.11 2300.76 814.11 2400.87 770.22 2400.87 762.41 2300.76 718.52 2400.87 718.52 2400.87 707.93"/>
      <path class="cls-1" d="M2400.87,595.45v-10.58l-121.45,44.94v20.12l121.45,45.11v-10.76l-33.49-12.42v-64.04l33.49-12.37ZM2358.19,668.45l-69.57-25.81v-5.73l69.57-25.7v57.23Z"/>
      <path class="cls-1" d="M2400.87,500.66v-11.97l-51.54,31.91c-.46-2.6-1.08-5.03-1.9-7.27-1.85-5.09-4.36-9.31-7.55-12.67-3.18-3.35-6.91-5.84-11.19-7.46-4.28-1.62-8.91-2.43-13.88-2.43-6.71,0-12.72,1.45-18.04,4.34-5.32,2.89-9.54,7.32-12.67,13.27-3.12,5.96-4.68,13.74-4.68,23.33v40.43h121.45v-10.58h-50.66v-30.02l50.66-30.88ZM2340.84,561.55h-52.22v-29.84c0-10.87,2.37-18.62,7.11-23.25,4.74-4.62,11.1-6.94,19.08-6.94,5.09,0,9.6,1.04,13.53,3.12,3.93,2.08,7,5.32,9.2,9.72,2.2,4.4,3.3,10.06,3.3,17v30.19Z"/>
      <path class="cls-1" d="M2293.91,471.08c4.92,3.12,10.73,4.68,17.44,4.68,5.44,0,9.98-1.04,13.62-3.12,3.64-2.08,6.62-4.92,8.94-8.5,2.31-3.58,4.25-7.6,5.81-12.06,1.56-4.45,2.98-9.05,4.25-13.79,1.62-5.55,3.47-10.55,5.55-15.01,2.08-4.45,4.74-7.98,7.98-10.58,3.24-2.6,7.35-3.9,12.32-3.9,6.48,0,11.91,2.32,16.31,6.94,4.4,4.63,6.59,11.74,6.59,21.34,0,6.83-1.07,12.35-3.21,16.57-2.14,4.22-4.83,7.49-8.07,9.8-3.24,2.32-6.48,3.88-9.72,4.68l3.82,9.54c4.97-1.27,9.46-3.64,13.45-7.11,3.99-3.47,7.17-8.01,9.54-13.62,2.37-5.61,3.56-12.29,3.56-20.04,0-9.02-1.53-16.37-4.6-22.03-3.06-5.67-7.14-9.86-12.23-12.58-5.09-2.72-10.58-4.08-16.48-4.08-5.44,0-10.03,1.01-13.79,3.04-3.76,2.03-6.91,4.74-9.46,8.15-2.54,3.41-4.68,7.35-6.42,11.8-1.74,4.45-3.35,9.05-4.86,13.79-1.62,5.55-3.32,10.61-5.12,15.18-1.79,4.57-4.16,8.24-7.11,11.02-2.95,2.78-6.97,4.16-12.06,4.16-4.74,0-8.82-1.24-12.23-3.73-3.41-2.49-6.01-5.81-7.81-9.98-1.79-4.16-2.69-8.73-2.69-13.71,0-5.32.9-9.92,2.69-13.79,1.79-3.87,4.05-7,6.77-9.37,2.72-2.37,5.41-4.02,8.07-4.95l-3.47-9.2c-4.28,1.39-8.18,3.7-11.71,6.94-3.53,3.24-6.3,7.35-8.33,12.32-2.02,4.97-3.04,10.87-3.04,17.7,0,7.75,1.39,14.49,4.16,20.21,2.78,5.73,6.62,10.15,11.54,13.27Z"/>
      <path class="cls-1" d="M2400.87,381.95l-33.49-12.42v-64.04l33.49-12.37v-10.58l-121.45,44.94v20.13l121.45,45.11v-10.76ZM2288.61,334.59l69.57-25.7v57.23l-69.57-25.81v-5.73Z"/>
      <polygon class="cls-1" points="220.18 933.57 180.68 843.94 167.31 843.94 167.31 950.28 179.47 950.28 179.47 867.94 215.77 950.28 224.43 950.28 260.59 867.94 260.59 950.28 272.74 950.28 272.74 843.94 259.53 843.94 220.18 933.57"/>
      <path class="cls-1" d="M322.51,843.94l-38.89,106.34h12.3l10.25-27.95h54.49l10.16,27.95h12.31l-38.74-106.34h-21.88ZM310.07,911.69l20.94-57.12h5.01l20.76,57.12h-46.72Z"/>
      <path class="cls-1" d="M447.78,904.25c4.56-1.72,8.3-4.05,11.24-6.99s5.09-6.28,6.46-10.03c1.37-3.75,2.05-7.7,2.05-11.85,0-5.87-1.32-11.17-3.95-15.88-2.63-4.71-6.61-8.48-11.93-11.32-5.32-2.83-12.13-4.25-20.43-4.25h-37.37v106.34h12.15v-43.45h23.69l25.99,43.45h13.82l-27.29-44.45c1.98-.41,3.84-.93,5.56-1.58ZM406,854.57h25.22c8.51,0,14.63,1.88,18.38,5.62,3.75,3.75,5.62,8.81,5.62,15.19,0,4.15-.84,7.8-2.51,10.94-1.67,3.14-4.25,5.57-7.75,7.29-3.49,1.72-8.03,2.58-13.6,2.58h-25.37v-41.62Z"/>
      <path class="cls-1" d="M540.25,900.45c-3.09-2.23-6.58-4.1-10.48-5.62-3.9-1.52-7.93-2.94-12.08-4.25-4.56-1.31-8.74-2.71-12.53-4.18-3.8-1.47-6.84-3.39-9.12-5.77-2.28-2.38-3.42-5.59-3.42-9.65,0-3.75.96-6.94,2.89-9.57,1.92-2.63,4.53-4.66,7.82-6.08,3.29-1.42,6.96-2.13,11.01-2.13s7.85.71,11.09,2.13c3.24,1.42,5.87,3.22,7.9,5.39,2.03,2.18,3.39,4.43,4.1,6.76l10.79-4.1c-1.42-4.05-3.62-7.62-6.61-10.71-2.99-3.09-6.71-5.49-11.17-7.22-4.46-1.72-9.67-2.58-15.65-2.58-6.89,0-12.91,1.22-18.08,3.65-5.17,2.43-9.17,5.85-12,10.25-2.84,4.41-4.25,9.6-4.25,15.57,0,4.96.96,9.12,2.89,12.46,1.92,3.34,4.51,6.05,7.75,8.13,3.24,2.08,6.86,3.8,10.86,5.17,4,1.37,8.03,2.61,12.08,3.72,4.56,1.32,8.66,2.81,12.31,4.48s6.53,3.77,8.66,6.3c2.13,2.53,3.19,5.77,3.19,9.72,0,4.96-1.88,9.27-5.62,12.91-3.75,3.65-9.52,5.47-17.32,5.47-5.47,0-9.95-.88-13.44-2.66-3.49-1.77-6.23-4-8.2-6.68-1.98-2.68-3.27-5.39-3.87-8.13l-11.09,4.41c1.21,4.56,3.44,8.61,6.68,12.15,3.24,3.55,7.39,6.36,12.46,8.43,5.06,2.07,10.94,3.11,17.62,3.11,8,0,14.56-1.39,19.67-4.18,5.11-2.78,8.94-6.48,11.47-11.09,2.53-4.61,3.8-9.59,3.8-14.96,0-4.86-.91-8.96-2.73-12.31-1.82-3.34-4.28-6.13-7.37-8.36Z"/>
      <path class="cls-1" d="M593.62,843.94l-38.89,106.34h12.31l10.25-27.95h54.49l10.16,27.95h12.31l-38.74-106.34h-21.88ZM581.18,911.69l20.94-57.12h5.01l20.76,57.12h-46.72Z"/>
      <polygon class="cls-1" points="608.45 647.93 608.45 829.37 687.18 829.37 687.18 512.64 593.97 512.64 507.09 727.56 420.22 512.64 327.01 512.64 327.01 829.37 405.74 829.37 405.74 647.93 474.97 829.37 539.22 829.37 608.45 647.93"/>
      <path class="cls-1" d="M947.25,512.64h-124.88l-115.83,316.73h81.44l22.18-63.35h148.04l22.53,63.35h81.44l-114.93-316.73ZM833.3,699.96l42.46-121.26h15.84l43.12,121.26h-101.42Z"/>
      <path class="cls-1" d="M1160.09,719.42h40.02l63.14,109.95h86.87l-71.84-118.3c.42-.16.84-.31,1.25-.48,14.78-5.88,26.92-13.8,36.42-23.75s16.59-21.11,21.27-33.48c4.67-12.37,7.01-24.89,7.01-37.56,0-18.4-4.3-35.44-12.9-51.13-8.6-15.68-21.57-28.28-38.91-37.78-17.35-9.5-39.14-14.25-65.38-14.25h-145.69v316.73h78.73v-109.95ZM1160.09,578.7h61.99c14.17,0,24.73,3.32,31.67,9.95,6.93,6.64,10.41,15.69,10.41,27.15,0,7.85-1.58,14.63-4.75,20.36-3.17,5.73-7.85,10.03-14.03,12.9-6.19,2.87-13.96,4.3-23.3,4.3h-61.99v-74.66Z"/>
      <path class="cls-1" d="M1599.93,785.93c8.75-14.17,13.12-30.16,13.12-47.96,0-16.59-3.39-30.39-10.18-41.4-6.79-11.01-15.77-20.06-26.92-27.15-11.16-7.08-23.23-12.9-36.2-17.42-12.97-4.52-25.64-8.75-38.01-12.67-9.05-3.01-17.35-6.18-24.89-9.5-7.54-3.32-13.5-7.08-17.87-11.31-4.38-4.22-6.56-9.65-6.56-16.29,0-6.03,1.88-11.31,5.66-15.84,3.77-4.52,8.67-7.99,14.71-10.41,6.03-2.41,12.67-3.62,19.91-3.62,5.73,0,11.54.98,17.42,2.94,5.88,1.97,10.93,5.05,15.16,9.28,4.22,4.23,6.93,9.66,8.14,16.29l72.4-12.67c-4.23-17.19-11.54-31.6-21.95-43.21-10.41-11.61-23.61-20.43-39.59-26.47-15.99-6.03-34.24-9.05-54.75-9.05-22.62,0-42.69,3.55-60.18,10.63-17.5,7.09-31.38,17.58-41.63,31.45-10.26,13.88-15.38,30.77-15.38,50.68-.3,16.29,2.71,29.86,9.05,40.72,6.33,10.86,14.78,19.68,25.34,26.47,10.55,6.79,22.02,12.37,34.39,16.74,12.37,4.38,24.58,8.22,36.65,11.54,10.86,3.32,20.43,6.56,28.73,9.73,8.29,3.17,14.78,7.01,19.46,11.54,4.67,4.52,7.01,10.56,7.01,18.1,0,9.35-3.85,16.97-11.54,22.85-7.69,5.88-18.63,8.82-32.8,8.82-8.14,0-15.61-1.13-22.4-3.39-6.79-2.26-12.52-6.03-17.19-11.31-4.68-5.27-7.77-12.29-9.28-21.04l-73.3,14.48c3.62,18.4,11.16,33.94,22.62,46.6,11.46,12.67,26.17,22.25,44.12,28.73,17.94,6.49,38.23,9.73,60.86,9.73,26.84,0,49.01-4.22,66.51-12.67,17.49-8.44,30.61-19.75,39.36-33.94Z"/>
      <path class="cls-1" d="M1696.21,829.37l22.18-63.35h148.04l22.53,63.35h81.44l-114.93-316.73h-124.88l-115.83,316.73h81.44ZM1799.83,578.7l43.12,121.26h-101.42l42.46-121.26h15.84Z"/>
      <polygon class="cls-1" points="378.11 110.17 434.48 257.93 486.81 257.93 543.18 110.17 543.18 257.93 607.29 257.93 607.29 0 531.39 0 460.65 175.02 389.9 0 314 0 314 257.93 378.11 257.93 378.11 110.17"/>
      <path class="cls-1" d="M707.45,206.34h120.56l18.34,51.59h66.32L819.09,0h-101.7l-94.33,257.93h66.32l18.06-51.59ZM773.76,53.8l35.11,98.75h-82.59l34.58-98.75h12.9Z"/>
      <path class="cls-1" d="M992.41,168.39h32.59l51.42,89.54h70.75l-58.51-96.35c.34-.13.69-.24,1.03-.37,12.03-4.79,21.92-11.24,29.66-19.34,7.74-8.11,13.51-17.19,17.32-27.27,3.81-10.07,5.71-20.27,5.71-30.58,0-14.98-3.5-28.86-10.5-41.64-7-12.77-17.57-23.03-31.69-30.77-14.13-7.74-31.87-11.61-53.24-11.61h-118.65v257.93h64.11v-89.54ZM992.41,53.8h50.48c11.54,0,20.14,2.71,25.79,8.11,5.65,5.41,8.47,12.78,8.47,22.11,0,6.39-1.29,11.92-3.87,16.58-2.58,4.67-6.39,8.17-11.42,10.5-5.04,2.34-11.37,3.5-18.98,3.5h-50.48v-60.8Z"/>
      <path class="cls-1" d="M314.24,411.3c.69.28,1.19.73,1.5,1.37.31.64.47,2.22.47,4.74l.05,6.32c0,9.98-.09,20.28-.26,30.91l-.26,11.65c-.04,3.76-.47,6.13-1.29,7.09-.55.66-3.11,1.43-7.66,2.33-.48.07-1.23.24-2.23.52v3.05c6.08-.38,10.96-.57,14.65-.57s8.53.19,14.5.57v-3.05c-1.07-.24-1.86-.41-2.38-.52-4.59-.79-7.2-1.47-7.82-2.02-.62-.55-.93-2.74-.93-6.58l-.67-48.26c11.21,22.75,20.68,42.7,28.4,59.86h2.95c1.45-3.45,3.69-8.44,6.73-14.96,11.04-23.71,18.12-38.68,21.26-44.89v45.2c0,4.59-.16,7.39-.47,8.39-.21.59-.61,1.04-1.22,1.37-.6.33-3.01.89-7.22,1.68-.69.14-1.71.38-3.06.73v3.05c6.59-.38,12.31-.57,17.14-.57s10.2.19,16.41.57v-3.05c-.9-.24-1.57-.4-2.02-.47-5.38-1.04-8.33-1.78-8.83-2.23-.5-.45-.77-1.14-.8-2.07-.17-4.42-.26-16.95-.26-37.59l.21-16.41v-.67c0-2.8.45-4.54,1.35-5.23.55-.45,3.23-1.16,8.03-2.12.52-.1,1.29-.29,2.33-.57v-3.05c-5.42.38-9.27.57-11.55.57-2.45,0-5.99-.19-10.62-.57-1.86,4.97-3.47,8.89-4.81,11.76l-22.1,46.52c-3.41-6.8-6.79-13.78-10.13-20.93-7.86-16.82-12.35-26.51-13.49-29.06-.86-1.9-2-4.66-3.41-8.29-3.94.38-7.61.57-11.03.57-3,0-7.39-.19-13.15-.57v3.05c1.28.31,2.24.52,2.9.62,4.56.69,7.49,1.29,8.8,1.81Z"/>
      <path class="cls-1" d="M465.62,474.16c-.69.52-3.12,1.21-7.3,2.07v3.05c7.32-.38,12.5-.57,15.53-.57s7.59.19,13.88.57v-3.05c-4.63-1.35-7.16-2.17-7.61-2.49-.66-.45-1.26-1.14-1.81-2.07l-12.06-26.35c-6.8-15.19-12.53-28.77-17.19-40.75h-3.26l-14.24,33.03c-8.04,18.57-13.05,29.57-15.02,32.98-.93,1.55-1.83,2.66-2.69,3.31-1.17.86-3.33,1.64-6.47,2.33v3.05c4.8-.38,8.73-.57,11.81-.57,2.42,0,6.58.19,12.48.57v-3.05c-.69-.21-1.23-.36-1.61-.47-3.59-.76-5.6-1.29-6.03-1.58-.43-.29-.65-.66-.65-1.11,0-.52.45-1.83,1.35-3.94l5.45-13.1,14.17-.1c3.33,0,8.66.04,15.98.1l5.26,12.63c.72,1.73,1.09,2.95,1.09,3.68s-.34,1.29-1.04,1.81ZM442.44,451.07c-2.07,0-5.5-.07-10.29-.21l13.08-31.06,13.1,31.06c-9.97.14-15.26.21-15.88.21Z"/>
      <path class="cls-1" d="M534.86,461.27c.31.45.64.88.98,1.29.59.72,2.21,3.05,4.87,6.96,2.66,3.92,4.76,7.17,6.32,9.76,3-.38,5.94-.57,8.8-.57,2.49,0,6.45.19,11.91.57v-3.05c-4.59-1-7.85-1.88-9.79-2.64-1.38-.52-2.5-1.14-3.37-1.86-.55-.48-1.9-2.12-4.04-4.92l-17.25-22.47c3.9-1.07,6.91-2.3,9.01-3.68,2.9-1.93,5.12-4.31,6.66-7.12,1.54-2.81,2.31-6.05,2.31-9.71,0-5.45-1.69-9.79-5.07-13-3.42-3.18-8.49-4.76-15.22-4.76-1.42,0-3.95.07-7.61.21-2.76.07-5.73.1-8.91.1-5.52,0-12.86-.19-22.01-.57v3.05c1.14.24,1.98.41,2.54.52,3.66.59,6.33,1.33,8.03,2.23.52.28.85.69,1.01,1.24.16.55.25,2.69.29,6.42l.21,24.34c-.1,16.74-.19,25.61-.26,26.61-.1,1.55-.49,2.63-1.17,3.24-.67.6-3.48,1.37-8.41,2.3l-2.23.47v3.05c6.32-.38,12.03-.57,17.14-.57,4.76,0,10.27.19,16.52.57v-3.05c-1.28-.31-2.23-.52-2.85-.62-4.35-.79-6.94-1.54-7.77-2.23-.55-.52-.86-1.29-.93-2.33l-.41-26.1c3.14.38,6.25.6,9.32.67l11.39,15.64ZM514.14,440.55l.31-28.79c5.38-.41,8.99-.62,10.82-.62,5.11,0,9,1.26,11.68,3.79,2.67,2.52,4.01,5.97,4.01,10.32,0,4.98-1.51,8.87-4.53,11.67s-7.67,4.2-13.95,4.2c-1.97,0-4.75-.19-8.34-.57Z"/>
      <path class="cls-1" d="M606.06,471.88c-3.07,2.28-6.63,3.42-10.7,3.42-2.96,0-5.69-.66-8.17-1.99-2.48-1.33-4.33-3.03-5.56-5.1-1.22-2.07-2.4-5.7-3.54-10.87h-3.99c0,8.04-.26,14.5-.78,19.36,4.56,1.52,8.47,2.59,11.73,3.21,3.26.62,6.51.93,9.76.93,4.76,0,9.21-1.01,13.33-3.03,4.12-2.02,7.21-4.73,9.27-8.12,2.05-3.39,3.08-7.05,3.08-10.99,0-4.39-1.36-8.35-4.08-11.88-2.76-3.49-7.96-6.87-15.61-10.14-7.65-3.27-12.46-5.98-14.43-8.12-2-2.14-3-4.65-3-7.52,0-3.25,1.22-6.01,3.65-8.29s5.7-3.42,9.81-3.42c2.9,0,5.51.58,7.84,1.74s4.06,2.76,5.2,4.8c1.14,2.04,2.16,5.28,3.05,9.71h3.94c-.17-3.59-.26-6.44-.26-8.54,0-1.04.09-4.07.26-9.11-7.25-2.45-13.43-3.68-18.54-3.68-4.25,0-8.35.94-12.3,2.82-3.95,1.88-6.95,4.43-8.98,7.66-2.04,3.23-3.05,6.61-3.05,10.17,0,4.07,1.26,7.57,3.78,10.5,2.52,2.97,7.52,6.07,14.99,9.29,7.47,3.23,12.33,6.12,14.58,8.68,2.21,2.59,3.31,5.56,3.31,8.91,0,4.11-1.53,7.31-4.6,9.59Z"/>
      <path class="cls-1" d="M681.01,474.16c-.69.52-3.12,1.21-7.3,2.07v3.05c7.32-.38,12.5-.57,15.53-.57s7.59.19,13.88.57v-3.05c-4.63-1.35-7.16-2.17-7.61-2.49-.66-.45-1.26-1.14-1.81-2.07l-12.06-26.35c-6.8-15.19-12.53-28.77-17.19-40.75h-3.26l-14.24,33.03c-8.04,18.57-13.05,29.57-15.02,32.98-.93,1.55-1.83,2.66-2.69,3.31-1.17.86-3.33,1.64-6.47,2.33v3.05c4.8-.38,8.73-.57,11.81-.57,2.42,0,6.58.19,12.48.57v-3.05c-.69-.21-1.23-.36-1.61-.47-3.59-.76-5.6-1.29-6.03-1.58-.43-.29-.65-.66-.65-1.11,0-.52.45-1.83,1.35-3.94l5.45-13.1,14.17-.1c3.33,0,8.66.04,15.98.1l5.26,12.63c.72,1.73,1.09,2.95,1.09,3.68s-.34,1.29-1.04,1.81ZM657.83,451.07c-2.07,0-5.5-.07-10.29-.21l13.08-31.06,13.1,31.06c-9.97.14-15.26.21-15.88.21Z"/>
      <path class="cls-1" d="M747.36,446.37h19.94c14.42,0,23.65-7.85,23.65-21.21s-9.33-20.68-22.91-20.68h-26.51v74.23h5.83v-32.34ZM747.36,409.78h20.89c9.97,0,16.54,5.62,16.54,15.59,0,9.33-4.98,15.69-16.97,15.69h-20.47v-31.28Z"/>
      <path class="cls-1" d="M851.19,423.99c0-11.67-7.74-19.51-22.38-19.51h-26.62v74.23h5.83v-34.68h18.24c14.21,0,17.82,5.09,17.82,17.29v1.91c0,6.36-.32,12.3,1.06,15.48h5.83c-1.38-2.86-.95-9.86-.95-15.06v-2.86c0-12.62-5.09-17.6-12.73-19.41,8.27-1.8,13.89-7.95,13.89-17.39ZM825.95,438.73h-17.92v-28.95h19.51c11.56,0,17.5,5.2,17.5,14.32,0,9.76-6.04,14.63-19.09,14.63Z"/>
      <path class="cls-1" d="M895.51,403.42c-22.06,0-33.83,17.18-33.83,38.18s12.2,38.18,33.09,38.18c22.91,0,33.72-18.45,33.72-38.71,0-21.63-12.62-37.65-32.98-37.65ZM895.08,474.47c-17.82,0-27.25-16.12-27.25-33.19s8.38-32.56,27.47-32.56c17.92,0,27.04,15.17,27.04,32.45s-8.06,33.3-27.25,33.3Z"/>
      <path class="cls-1" d="M947.96,458.35c0,8.38-1.27,16.12-11.24,16.12-2.44,0-5.09-.21-6.57-.53v5.2c1.8.32,3.18.64,6.36.64,9.86,0,17.18-4.77,17.18-21.32v-53.98h-5.73v53.87Z"/>
      <polygon class="cls-1" points="1018.09 473.41 976.63 473.41 976.63 442.23 1014.49 442.23 1014.49 436.93 976.63 436.93 976.63 409.78 1016.4 409.78 1016.4 404.48 970.9 404.48 970.9 478.71 1017.25 478.71 1018.09 473.41"/>
      <path class="cls-1" d="M1057.53,479.56c15.69,0,24.39-8.91,27.89-20.68h-5.73c-3.71,9.12-9.86,15.38-21.95,15.38-18.98,0-26.62-16.76-26.62-32.66s7.74-32.88,26.19-32.88c12.83,0,19.09,6.36,22.48,16.01h5.73c-2.44-12.41-11.88-21.32-27.89-21.32-21.63,0-32.66,18.24-32.66,38.28s11.24,37.86,32.56,37.86Z"/>
      <polygon class="cls-1" points="1088.43 409.78 1113.35 409.78 1113.35 478.71 1119.18 478.71 1119.18 409.78 1144.21 409.78 1144.21 404.48 1088.43 404.48 1088.43 409.78"/>
      <path class="cls-1" d="M310.5,371.05c2.43,0,4.35-.4,5.77-1.19,1.42-.79,2.13-1.86,2.13-3.2,0-.81-.12-1.5-.37-2.06-.25-.56-.37-1.26-.37-2.1,0-.47.08-1.04.23-1.73.16-.69.43-1.61.82-2.78.39-1.17.93-2.72,1.61-4.65,1.62-4.52,3.55-8.28,5.8-11.29,2.24-3.01,4.5-5.26,6.78-6.75,2.27-1.5,4.25-2.24,5.94-2.24,1.46,0,2.36.64,2.69,1.92.33,1.28-.04,3.44-1.1,6.5l-7.2,20.48c-.72,2.09-1.11,3.8-1.19,5.14-.08,1.34.19,2.34.79,2.99.61.65,1.57.98,2.88.98,2.43,0,4.36-.4,5.77-1.19,1.42-.79,2.13-1.86,2.13-3.2,0-.81-.12-1.5-.37-2.06-.25-.56-.37-1.26-.37-2.1,0-.47.08-1.04.23-1.73.16-.69.43-1.61.82-2.78.39-1.17.91-2.72,1.57-4.65,1.62-4.52,3.54-8.27,5.77-11.27,2.23-2.99,4.47-5.24,6.73-6.75,2.26-1.51,4.21-2.27,5.87-2.27,1.43,0,2.34.64,2.71,1.92.37,1.28,0,3.44-1.12,6.5l-6.4,18.28c-.84,2.4-1.23,4.44-1.17,6.12.06,1.68.58,2.97,1.57,3.86s2.42,1.33,4.32,1.33c2.59,0,4.92-.62,7.01-1.85,2.09-1.23,3.68-2.88,4.77-4.93.37-.69.57-1.28.58-1.78.01-.5-.16-.83-.54-.98-.31-.16-.64-.17-.98-.05-.34.12-.78.42-1.31.89-.84.81-1.54,1.37-2.1,1.68-.56.31-1.11.47-1.64.47-.84,0-1.39-.49-1.64-1.47-.25-.98.06-2.7.93-5.17l6.26-17.76c1-2.84,1.54-5.28,1.61-7.34.08-2.06-.41-3.65-1.45-4.77-1.04-1.12-2.78-1.68-5.21-1.68-1.84,0-3.88.41-6.12,1.22-2.24.81-4.55,2.15-6.92,4.02-2.37,1.87-4.66,4.34-6.87,7.41-.34.47-.67.96-1,1.46.25-.61.48-1.19.69-1.72.61-1.5,1.08-2.77,1.4-3.81.33-1.04.49-2,.49-2.88.09-1.93-.42-3.37-1.54-4.3-1.12-.93-2.82-1.4-5.1-1.4-2.46,0-5.27.75-8.41,2.24-3.15,1.5-6.29,3.99-9.42,7.48-1.27,1.42-2.48,3.05-3.63,4.88.42-1.02.8-1.96,1.15-2.8.67-1.64,1.18-3.03,1.54-4.18.36-1.15.54-2.18.54-3.09,0-1.5-.5-2.63-1.5-3.39-1-.76-2.35-1.15-4.07-1.15-2.59,0-4.93.61-7.04,1.82s-3.72,2.85-4.84,4.91c-.37.72-.57,1.32-.58,1.8-.02.48.16.82.54,1,.31.16.64.16.98.02s.78-.43,1.31-.86c.84-.81,1.55-1.38,2.13-1.71.58-.33,1.11-.49,1.61-.49.84,0,1.38.5,1.61,1.5.23,1-.09,2.71-.96,5.14l-8.04,22.49c-1.12,3.12-1.48,5.42-1.08,6.9.4,1.48,1.59,2.22,3.55,2.22Z"/>
      <path class="cls-1" d="M424.32,335.06c.19-.69.49-1.22.91-1.61.42-.39.83-.78,1.21-1.17.39-.39.62-.93.68-1.61.06-.81-.34-1.55-1.19-2.22-.86-.67-2.16-1.19-3.9-1.57-1.75-.37-3.96-.56-6.64-.56-3.52,0-6.91.56-10.17,1.68-3.26,1.12-6.26,2.68-9.02,4.67-2.76,1.99-5.19,4.31-7.29,6.94-2.1,2.63-3.8,5.45-5.1,8.46-1.29,3.01-2.08,6.08-2.36,9.23-.47,4.77.2,8.25,2.01,10.45s4.36,3.3,7.67,3.3c2.93,0,5.81-.83,8.65-2.48,2.83-1.65,5.47-4.07,7.9-7.25.9-1.17,1.75-2.44,2.55-3.8-.27.97-.5,1.84-.68,2.59-.31,1.28-.53,2.35-.66,3.23-.12.87-.19,1.67-.19,2.38,0,1.75.44,3.07,1.33,3.97.89.9,2.24,1.36,4.04,1.36,2.21,0,4.35-.61,6.43-1.82,2.07-1.22,3.67-2.84,4.79-4.86.37-.72.56-1.32.56-1.8s-.19-.82-.56-1.01c-.31-.16-.64-.17-.98-.05-.34.12-.78.44-1.31.94-.81.78-1.49,1.33-2.03,1.66-.55.33-1.1.49-1.66.49-.75,0-1.23-.48-1.45-1.45-.22-.97,0-2.71.66-5.24l5.8-22.86ZM415.54,334.82c-.47,3.12-1.22,6.17-2.24,9.16-1.03,2.99-2.25,5.78-3.67,8.37-1.42,2.59-2.94,4.88-4.56,6.87-1.62,1.99-3.23,3.55-4.84,4.67-1.61,1.12-3.12,1.68-4.56,1.68-1.53,0-2.7-.65-3.53-1.96-.83-1.31-1.08-3.57-.77-6.78.25-2.59.83-5.17,1.73-7.74.9-2.57,2.07-4.99,3.51-7.25,1.43-2.26,3.03-4.26,4.79-6.01,1.76-1.75,3.62-3.12,5.56-4.11,1.95-1,3.9-1.5,5.87-1.5,1.09,0,1.89.36,2.38,1.08.5.72.61,1.89.33,3.51Z"/>
      <path class="cls-1" d="M433.32,362.08c-.69,2.03-1.04,3.71-1.08,5.05-.03,1.34.3,2.34.98,2.99.69.65,1.76.98,3.23.98,1.87,0,3.45-.18,4.75-.54,1.29-.36,2.27-.85,2.95-1.47.67-.62,1-1.31,1-2.06s-.16-1.26-.47-1.64-.62-.77-.93-1.19c-.31-.42-.47-1.02-.47-1.8,0-1.03.17-2.19.51-3.48.34-1.29.87-3.03,1.59-5.21,1.5-4.71,3.14-8.65,4.93-11.83,1.79-3.18,3.57-5.59,5.33-7.22,1.76-1.64,3.33-2.45,4.7-2.45.81,0,1.39.23,1.75.7.36.47.54,1.09.54,1.87,0,.69-.1,1.34-.3,1.96-.2.62-.3,1.26-.3,1.92,0,.75.28,1.4.84,1.96.56.56,1.43.84,2.62.84,1.09,0,2.1-.31,3.04-.94.93-.62,1.7-1.53,2.29-2.71.59-1.18.92-2.6.98-4.25.03-2.18-.55-3.93-1.75-5.26-1.2-1.32-2.98-1.99-5.35-1.99-1.9,0-3.84.56-5.82,1.68-1.98,1.12-3.89,2.73-5.73,4.84-1.73,1.98-3.31,4.35-4.76,7.1.58-1.52,1.12-3.01,1.58-4.45.56-1.75.84-3.27.84-4.58,0-1.53-.44-2.67-1.33-3.44-.89-.76-2.13-1.15-3.72-1.15s-3.23.27-4.72.82c-1.5.55-2.85,1.32-4.07,2.34-1.22,1.01-2.2,2.21-2.95,3.58-.37.72-.56,1.32-.56,1.8s.19.82.56,1c.31.16.64.16.98.02s.78-.43,1.31-.86c.81-.81,1.51-1.38,2.1-1.71.59-.33,1.14-.49,1.64-.49.84,0,1.38.5,1.61,1.5.23,1-.06,2.71-.87,5.14l-7.48,22.63Z"/>
      <path class="cls-1" d="M500.3,365.19c1.43-1.82,2.15-3.9,2.15-6.24,0-1.5-.25-2.86-.75-4.09-.5-1.23-1.4-2.53-2.71-3.9-1.31-1.37-3.18-2.98-5.61-4.81-2.06-1.62-3.62-2.99-4.7-4.11-1.08-1.12-1.82-2.15-2.22-3.08-.41-.94-.61-1.89-.61-2.85,0-1.87.69-3.42,2.08-4.65,1.39-1.23,3.25-1.85,5.59-1.85,1.68,0,3.11.47,4.28,1.4s2.17,2.28,3.02,4.02c.68,1.5,1.37,2.53,2.06,3.11.69.58,1.48.86,2.38.86,1,0,1.78-.34,2.34-1.03.56-.69.83-1.65.79-2.9,0-1.56-.52-3.01-1.57-4.35-1.04-1.34-2.58-2.42-4.6-3.23-2.03-.81-4.5-1.22-7.43-1.22-3.8,0-7.05.6-9.75,1.8-2.7,1.2-4.77,2.8-6.22,4.79-1.45,1.99-2.17,4.19-2.17,6.59,0,1.62.27,3.08.82,4.37.54,1.29,1.46,2.59,2.76,3.88,1.29,1.29,3.08,2.78,5.35,4.46,2.09,1.53,3.68,2.84,4.77,3.93,1.09,1.09,1.83,2.07,2.22,2.95.39.87.58,1.78.58,2.71,0,1.68-.64,3.06-1.92,4.14-1.28,1.08-2.96,1.61-5.05,1.61-1.65,0-3.16-.44-4.54-1.31-1.37-.87-2.6-2.37-3.69-4.49-.69-1.43-1.4-2.47-2.15-3.11-.75-.64-1.62-.96-2.62-.96-.94,0-1.68.34-2.22,1.03-.55.69-.83,1.61-.87,2.76,0,1.62.57,3.17,1.71,4.65,1.14,1.48,2.8,2.68,5,3.6s4.88,1.38,8.06,1.38c3.62,0,6.73-.52,9.35-1.57,2.62-1.04,4.64-2.48,6.08-4.3Z"/>
      <path class="cls-1" d="M552.71,335.06c.19-.69.49-1.22.91-1.61.42-.39.83-.78,1.21-1.17.39-.39.62-.93.68-1.61.06-.81-.34-1.55-1.19-2.22-.86-.67-2.16-1.19-3.9-1.57-1.75-.37-3.96-.56-6.64-.56-3.52,0-6.91.56-10.17,1.68-3.26,1.12-6.26,2.68-9.02,4.67-2.76,1.99-5.19,4.31-7.29,6.94-2.1,2.63-3.8,5.45-5.1,8.46-1.29,3.01-2.08,6.08-2.36,9.23-.47,4.77.2,8.25,2.01,10.45s4.36,3.3,7.67,3.3c2.93,0,5.81-.83,8.65-2.48,2.83-1.65,5.47-4.07,7.9-7.25.9-1.17,1.75-2.44,2.55-3.8-.27.97-.5,1.84-.68,2.59-.31,1.28-.53,2.35-.66,3.23-.12.87-.19,1.67-.19,2.38,0,1.75.44,3.07,1.33,3.97.89.9,2.24,1.36,4.04,1.36,2.21,0,4.35-.61,6.43-1.82,2.07-1.22,3.67-2.84,4.79-4.86.37-.72.56-1.32.56-1.8s-.19-.82-.56-1.01c-.31-.16-.64-.17-.98-.05-.34.12-.78.44-1.31.94-.81.78-1.49,1.33-2.03,1.66-.55.33-1.1.49-1.66.49-.75,0-1.23-.48-1.45-1.45-.22-.97,0-2.71.66-5.24l5.8-22.86ZM543.92,334.82c-.47,3.12-1.22,6.17-2.24,9.16-1.03,2.99-2.25,5.78-3.67,8.37-1.42,2.59-2.94,4.88-4.56,6.87-1.62,1.99-3.23,3.55-4.84,4.67-1.61,1.12-3.12,1.68-4.56,1.68-1.53,0-2.7-.65-3.53-1.96-.83-1.31-1.08-3.57-.77-6.78.25-2.59.83-5.17,1.73-7.74.9-2.57,2.07-4.99,3.51-7.25,1.43-2.26,3.03-4.26,4.79-6.01,1.76-1.75,3.62-3.12,5.56-4.11,1.95-1,3.9-1.5,5.87-1.5,1.09,0,1.89.36,2.38,1.08.5.72.61,1.89.33,3.51Z"/>
      <path class="cls-1" d="M602.11,333.05c-.37.72-.57,1.32-.58,1.8-.02.48.16.82.54,1,.31.16.64.16.98.02s.78-.43,1.31-.86c.84-.81,1.55-1.38,2.13-1.71.58-.33,1.11-.49,1.61-.49.84,0,1.38.5,1.61,1.5.23,1-.09,2.71-.96,5.14l-8.04,22.49c-1.12,3.12-1.48,5.42-1.08,6.9.4,1.48,1.59,2.22,3.55,2.22,2.43,0,4.35-.4,5.77-1.19,1.42-.79,2.13-1.86,2.13-3.2,0-.81-.12-1.5-.37-2.06-.25-.56-.37-1.26-.37-2.1,0-.47.08-1.04.23-1.73.16-.69.43-1.61.82-2.78.39-1.17.93-2.72,1.61-4.65,1.62-4.52,3.55-8.28,5.8-11.29,2.24-3.01,4.5-5.26,6.78-6.75,2.27-1.5,4.25-2.24,5.94-2.24,1.46,0,2.36.64,2.69,1.92.33,1.28-.04,3.44-1.1,6.5l-7.2,20.48c-.72,2.09-1.11,3.8-1.19,5.14-.08,1.34.19,2.34.79,2.99.61.65,1.57.98,2.88.98,2.43,0,4.36-.4,5.77-1.19,1.42-.79,2.13-1.86,2.13-3.2,0-.81-.12-1.5-.37-2.06-.25-.56-.37-1.26-.37-2.1,0-.47.08-1.04.23-1.73.16-.69.43-1.61.82-2.78.39-1.17.91-2.72,1.57-4.65,1.62-4.52,3.54-8.27,5.77-11.27,2.23-2.99,4.47-5.24,6.73-6.75,2.26-1.51,4.21-2.27,5.87-2.27,1.43,0,2.34.64,2.71,1.92.37,1.28,0,3.44-1.12,6.5l-6.4,18.28c-.84,2.4-1.23,4.44-1.17,6.12.06,1.68.58,2.97,1.57,3.86s2.42,1.33,4.32,1.33c2.59,0,4.92-.62,7.01-1.85,2.09-1.23,3.68-2.88,4.77-4.93.37-.69.57-1.28.58-1.78.01-.5-.16-.83-.54-.98-.31-.16-.64-.17-.98-.05-.34.12-.78.42-1.31.89-.84.81-1.54,1.37-2.1,1.68-.56.31-1.11.47-1.64.47-.84,0-1.39-.49-1.64-1.47-.25-.98.06-2.7.93-5.17l6.26-17.76c1-2.84,1.54-5.28,1.61-7.34.08-2.06-.41-3.65-1.45-4.77-1.04-1.12-2.78-1.68-5.21-1.68-1.84,0-3.88.41-6.12,1.22-2.24.81-4.55,2.15-6.92,4.02-2.37,1.87-4.66,4.34-6.87,7.41-.34.47-.67.96-1,1.46.25-.61.48-1.19.69-1.72.61-1.5,1.08-2.77,1.4-3.81.33-1.04.49-2,.49-2.88.09-1.93-.42-3.37-1.54-4.3-1.12-.93-2.82-1.4-5.1-1.4-2.46,0-5.27.75-8.41,2.24-3.15,1.5-6.29,3.99-9.42,7.48-1.27,1.42-2.48,3.05-3.63,4.88.42-1.02.8-1.96,1.15-2.8.67-1.64,1.18-3.03,1.54-4.18.36-1.15.54-2.18.54-3.09,0-1.5-.5-2.63-1.5-3.39-1-.76-2.35-1.15-4.07-1.15-2.59,0-4.93.61-7.04,1.82s-3.72,2.85-4.84,4.91Z"/>
      <path class="cls-1" d="M717.01,335.06c.19-.69.49-1.22.91-1.61.42-.39.83-.78,1.21-1.17.39-.39.62-.93.68-1.61.06-.81-.34-1.55-1.19-2.22-.86-.67-2.16-1.19-3.9-1.57-1.75-.37-3.96-.56-6.64-.56-3.52,0-6.91.56-10.17,1.68-3.26,1.12-6.26,2.68-9.02,4.67-2.76,1.99-5.19,4.31-7.29,6.94-2.1,2.63-3.8,5.45-5.1,8.46-1.29,3.01-2.08,6.08-2.36,9.23-.47,4.77.2,8.25,2.01,10.45s4.36,3.3,7.67,3.3c2.93,0,5.81-.83,8.65-2.48,2.83-1.65,5.47-4.07,7.9-7.25.9-1.17,1.75-2.44,2.55-3.8-.27.97-.5,1.84-.68,2.59-.31,1.28-.53,2.35-.66,3.23-.12.87-.19,1.67-.19,2.38,0,1.75.44,3.07,1.33,3.97.89.9,2.24,1.36,4.04,1.36,2.21,0,4.35-.61,6.43-1.82,2.07-1.22,3.67-2.84,4.79-4.86.37-.72.56-1.32.56-1.8s-.19-.82-.56-1.01c-.31-.16-.64-.17-.98-.05-.34.12-.78.44-1.31.94-.81.78-1.49,1.33-2.03,1.66-.55.33-1.1.49-1.66.49-.75,0-1.23-.48-1.45-1.45-.22-.97,0-2.71.66-5.24l5.8-22.86ZM708.22,334.82c-.47,3.12-1.22,6.17-2.24,9.16-1.03,2.99-2.25,5.78-3.67,8.37-1.42,2.59-2.94,4.88-4.56,6.87-1.62,1.99-3.23,3.55-4.84,4.67-1.61,1.12-3.12,1.68-4.56,1.68-1.53,0-2.7-.65-3.53-1.96-.83-1.31-1.08-3.57-.77-6.78.25-2.59.83-5.17,1.73-7.74.9-2.57,2.07-4.99,3.51-7.25,1.43-2.26,3.03-4.26,4.79-6.01,1.76-1.75,3.62-3.12,5.56-4.11,1.95-1,3.9-1.5,5.87-1.5,1.09,0,1.89.36,2.38,1.08.5.72.61,1.89.33,3.51Z"/>
      <path class="cls-1" d="M738.06,353.71c1.5-4.71,3.14-8.65,4.93-11.83,1.79-3.18,3.57-5.59,5.33-7.22,1.76-1.64,3.33-2.45,4.7-2.45.81,0,1.39.23,1.75.7.36.47.54,1.09.54,1.87,0,.69-.1,1.34-.3,1.96-.2.62-.3,1.26-.3,1.92,0,.75.28,1.4.84,1.96.56.56,1.43.84,2.62.84,1.09,0,2.1-.31,3.04-.94.93-.62,1.7-1.53,2.29-2.71.59-1.18.92-2.6.98-4.25.03-2.18-.55-3.93-1.75-5.26-1.2-1.32-2.98-1.99-5.35-1.99-1.9,0-3.84.56-5.82,1.68-1.98,1.12-3.89,2.73-5.73,4.84-1.73,1.98-3.31,4.35-4.76,7.1.58-1.52,1.12-3.01,1.58-4.45.56-1.75.84-3.27.84-4.58,0-1.53-.44-2.67-1.33-3.44-.89-.76-2.13-1.15-3.72-1.15s-3.23.27-4.72.82c-1.5.55-2.85,1.32-4.07,2.34-1.22,1.01-2.2,2.21-2.95,3.58-.37.72-.56,1.32-.56,1.8s.19.82.56,1c.31.16.64.16.98.02s.78-.43,1.31-.86c.81-.81,1.51-1.38,2.1-1.71.59-.33,1.14-.49,1.64-.49.84,0,1.38.5,1.61,1.5.23,1-.06,2.71-.87,5.14l-7.48,22.63c-.69,2.03-1.04,3.71-1.08,5.05-.03,1.34.3,2.34.98,2.99.69.65,1.76.98,3.23.98,1.87,0,3.45-.18,4.75-.54,1.29-.36,2.27-.85,2.95-1.47.67-.62,1-1.31,1-2.06s-.16-1.26-.47-1.64-.62-.77-.93-1.19c-.31-.42-.47-1.02-.47-1.8,0-1.03.17-2.19.51-3.48.34-1.29.87-3.03,1.59-5.21Z"/>
      <path class="cls-1" d="M780.62,331.43c1.39-1.23,3.25-1.85,5.59-1.85,1.68,0,3.11.47,4.28,1.4s2.17,2.28,3.02,4.02c.68,1.5,1.37,2.53,2.06,3.11.69.58,1.48.86,2.38.86,1,0,1.78-.34,2.34-1.03.56-.69.83-1.65.79-2.9,0-1.56-.52-3.01-1.57-4.35-1.04-1.34-2.58-2.42-4.6-3.23-2.03-.81-4.5-1.22-7.43-1.22-3.8,0-7.05.6-9.75,1.8-2.7,1.2-4.77,2.8-6.22,4.79-1.45,1.99-2.17,4.19-2.17,6.59,0,1.62.27,3.08.82,4.37.54,1.29,1.46,2.59,2.76,3.88,1.29,1.29,3.08,2.78,5.35,4.46,2.09,1.53,3.68,2.84,4.77,3.93,1.09,1.09,1.83,2.07,2.22,2.95.39.87.58,1.78.58,2.71,0,1.68-.64,3.06-1.92,4.14-1.28,1.08-2.96,1.61-5.05,1.61-1.65,0-3.16-.44-4.54-1.31-1.37-.87-2.6-2.37-3.69-4.49-.69-1.43-1.4-2.47-2.15-3.11-.75-.64-1.62-.96-2.62-.96-.94,0-1.68.34-2.22,1.03-.55.69-.83,1.61-.87,2.76,0,1.62.57,3.17,1.71,4.65,1.14,1.48,2.8,2.68,5,3.6s4.88,1.38,8.06,1.38c3.62,0,6.73-.52,9.35-1.57,2.62-1.04,4.64-2.48,6.08-4.3s2.15-3.9,2.15-6.24c0-1.5-.25-2.86-.75-4.09-.5-1.23-1.4-2.53-2.71-3.9-1.31-1.37-3.18-2.98-5.61-4.81-2.06-1.62-3.62-2.99-4.7-4.11-1.08-1.12-1.82-2.15-2.22-3.08-.41-.94-.61-1.89-.61-2.85,0-1.87.69-3.42,2.08-4.65Z"/>
      <path class="cls-1" d="M845.39,335.06c.19-.69.49-1.22.91-1.61.42-.39.83-.78,1.21-1.17.39-.39.62-.93.68-1.61.06-.81-.34-1.55-1.19-2.22-.86-.67-2.16-1.19-3.9-1.57-1.75-.37-3.96-.56-6.64-.56-3.52,0-6.91.56-10.17,1.68-3.26,1.12-6.26,2.68-9.02,4.67-2.76,1.99-5.19,4.31-7.29,6.94-2.1,2.63-3.8,5.45-5.1,8.46-1.29,3.01-2.08,6.08-2.36,9.23-.47,4.77.2,8.25,2.01,10.45s4.36,3.3,7.67,3.3c2.93,0,5.81-.83,8.65-2.48,2.83-1.65,5.47-4.07,7.9-7.25.9-1.17,1.75-2.44,2.55-3.8-.27.97-.5,1.84-.68,2.59-.31,1.28-.53,2.35-.66,3.23-.12.87-.19,1.67-.19,2.38,0,1.75.44,3.07,1.33,3.97.89.9,2.24,1.36,4.04,1.36,2.21,0,4.35-.61,6.43-1.82,2.07-1.22,3.67-2.84,4.79-4.86.37-.72.56-1.32.56-1.8s-.19-.82-.56-1.01c-.31-.16-.64-.17-.98-.05-.34.12-.78.44-1.31.94-.81.78-1.49,1.33-2.03,1.66-.55.33-1.1.49-1.66.49-.75,0-1.23-.48-1.45-1.45-.22-.97,0-2.71.66-5.24l5.8-22.86ZM836.61,334.82c-.47,3.12-1.22,6.17-2.24,9.16-1.03,2.99-2.25,5.78-3.67,8.37-1.42,2.59-2.94,4.88-4.56,6.87-1.62,1.99-3.23,3.55-4.84,4.67-1.61,1.12-3.12,1.68-4.56,1.68-1.53,0-2.7-.65-3.53-1.96-.83-1.31-1.08-3.57-.77-6.78.25-2.59.83-5.17,1.73-7.74.9-2.57,2.07-4.99,3.51-7.25,1.43-2.26,3.03-4.26,4.79-6.01,1.76-1.75,3.62-3.12,5.56-4.11,1.95-1,3.9-1.5,5.87-1.5,1.09,0,1.89.36,2.38,1.08.5.72.61,1.89.33,3.51Z"/>
      <path class="cls-1" d="M909,340.92c.42-1.02.8-1.96,1.15-2.8.67-1.64,1.18-3.03,1.54-4.18.36-1.15.54-2.18.54-3.09,0-1.5-.5-2.63-1.5-3.39-1-.76-2.35-1.15-4.07-1.15-2.59,0-4.93.61-7.04,1.82s-3.72,2.85-4.84,4.91c-.37.72-.57,1.32-.58,1.8-.02.48.16.82.54,1,.31.16.64.16.98.02s.78-.43,1.31-.86c.84-.81,1.55-1.38,2.13-1.71.58-.33,1.11-.49,1.61-.49.84,0,1.38.5,1.61,1.5.23,1-.09,2.71-.96,5.14l-8.04,22.49c-1.12,3.12-1.48,5.42-1.08,6.9.4,1.48,1.59,2.22,3.55,2.22,2.43,0,4.35-.4,5.77-1.19,1.42-.79,2.13-1.86,2.13-3.2,0-.81-.12-1.5-.37-2.06-.25-.56-.37-1.26-.37-2.1,0-.47.08-1.04.23-1.73.16-.69.43-1.61.82-2.78.39-1.17.93-2.72,1.61-4.65,1.62-4.52,3.55-8.28,5.8-11.29,2.24-3.01,4.5-5.26,6.78-6.75,2.27-1.5,4.25-2.24,5.94-2.24,1.46,0,2.36.64,2.69,1.92.33,1.28-.04,3.44-1.1,6.5l-7.2,20.48c-.72,2.09-1.11,3.8-1.19,5.14-.08,1.34.19,2.34.79,2.99.61.65,1.57.98,2.88.98,2.43,0,4.36-.4,5.77-1.19,1.42-.79,2.13-1.86,2.13-3.2,0-.81-.12-1.5-.37-2.06-.25-.56-.37-1.26-.37-2.1,0-.47.08-1.04.23-1.73.16-.69.43-1.61.82-2.78.39-1.17.91-2.72,1.57-4.65,1.62-4.52,3.54-8.27,5.77-11.27,2.23-2.99,4.47-5.24,6.73-6.75,2.26-1.51,4.21-2.27,5.87-2.27,1.43,0,2.34.64,2.71,1.92.37,1.28,0,3.44-1.12,6.5l-6.4,18.28c-.84,2.4-1.23,4.44-1.17,6.12.06,1.68.58,2.97,1.57,3.86s2.42,1.33,4.32,1.33c2.59,0,4.92-.62,7.01-1.85,2.09-1.23,3.68-2.88,4.77-4.93.37-.69.57-1.28.58-1.78.01-.5-.16-.83-.54-.98-.31-.16-.64-.17-.98-.05-.34.12-.78.42-1.31.89-.84.81-1.54,1.37-2.1,1.68-.56.31-1.11.47-1.64.47-.84,0-1.39-.49-1.64-1.47-.25-.98.06-2.7.93-5.17l6.26-17.76c1-2.84,1.54-5.28,1.61-7.34.08-2.06-.41-3.65-1.45-4.77-1.04-1.12-2.78-1.68-5.21-1.68-1.84,0-3.88.41-6.12,1.22-2.24.81-4.55,2.15-6.92,4.02-2.37,1.87-4.66,4.34-6.87,7.41-.34.47-.67.96-1,1.46.25-.61.48-1.19.69-1.72.61-1.5,1.08-2.77,1.4-3.81.33-1.04.49-2,.49-2.88.09-1.93-.42-3.37-1.54-4.3-1.12-.93-2.82-1.4-5.1-1.4-2.46,0-5.27.75-8.41,2.24-3.15,1.5-6.29,3.99-9.42,7.48-1.27,1.42-2.48,3.05-3.63,4.88Z"/>
      <path class="cls-1" d="M1009.7,335.06c.19-.69.49-1.22.91-1.61.42-.39.83-.78,1.21-1.17.39-.39.62-.93.68-1.61.06-.81-.34-1.55-1.19-2.22-.86-.67-2.16-1.19-3.9-1.57-1.75-.37-3.96-.56-6.64-.56-3.52,0-6.91.56-10.17,1.68-3.26,1.12-6.26,2.68-9.02,4.67-2.76,1.99-5.19,4.31-7.29,6.94-2.1,2.63-3.8,5.45-5.1,8.46-1.29,3.01-2.08,6.08-2.36,9.23-.47,4.77.2,8.25,2.01,10.45s4.36,3.3,7.67,3.3c2.93,0,5.81-.83,8.65-2.48,2.83-1.65,5.47-4.07,7.9-7.25.9-1.17,1.75-2.44,2.55-3.8-.27.97-.5,1.84-.68,2.59-.31,1.28-.53,2.35-.66,3.23-.12.87-.19,1.67-.19,2.38,0,1.75.44,3.07,1.33,3.97.89.9,2.24,1.36,4.04,1.36,2.21,0,4.35-.61,6.43-1.82,2.07-1.22,3.67-2.84,4.79-4.86.37-.72.56-1.32.56-1.8s-.19-.82-.56-1.01c-.31-.16-.64-.17-.98-.05-.34.12-.78.44-1.31.94-.81.78-1.49,1.33-2.03,1.66-.55.33-1.1.49-1.66.49-.75,0-1.23-.48-1.45-1.45-.22-.97,0-2.71.66-5.24l5.8-22.86ZM1000.91,334.82c-.47,3.12-1.22,6.17-2.24,9.16-1.03,2.99-2.25,5.78-3.67,8.37-1.42,2.59-2.94,4.88-4.56,6.87-1.62,1.99-3.23,3.55-4.84,4.67-1.61,1.12-3.12,1.68-4.56,1.68-1.53,0-2.7-.65-3.53-1.96-.83-1.31-1.08-3.57-.77-6.78.25-2.59.83-5.17,1.73-7.74.9-2.57,2.07-4.99,3.51-7.25,1.43-2.26,3.03-4.26,4.79-6.01,1.76-1.75,3.62-3.12,5.56-4.11,1.95-1,3.9-1.5,5.87-1.5,1.09,0,1.89.36,2.38,1.08.5.72.61,1.89.33,3.51Z"/>
      <path class="cls-1" d="M1021.82,371.1c1.87,0,3.45-.18,4.75-.54,1.29-.36,2.27-.85,2.95-1.47.67-.62,1-1.31,1-2.06s-.16-1.26-.47-1.64-.62-.77-.93-1.19c-.31-.42-.47-1.02-.47-1.8,0-1.03.17-2.19.51-3.48.34-1.29.87-3.03,1.59-5.21,1.5-4.71,3.14-8.65,4.93-11.83,1.79-3.18,3.57-5.59,5.33-7.22,1.76-1.64,3.33-2.45,4.7-2.45.81,0,1.39.23,1.75.7.36.47.54,1.09.54,1.87,0,.69-.1,1.34-.3,1.96-.2.62-.3,1.26-.3,1.92,0,.75.28,1.4.84,1.96.56.56,1.43.84,2.62.84,1.09,0,2.1-.31,3.04-.94.93-.62,1.7-1.53,2.29-2.71.59-1.18.92-2.6.98-4.25.03-2.18-.55-3.93-1.75-5.26-1.2-1.32-2.98-1.99-5.35-1.99-1.9,0-3.84.56-5.82,1.68-1.98,1.12-3.89,2.73-5.73,4.84-1.73,1.98-3.31,4.35-4.76,7.1.58-1.52,1.12-3.01,1.58-4.45.56-1.75.84-3.27.84-4.58,0-1.53-.44-2.67-1.33-3.44-.89-.76-2.13-1.15-3.72-1.15s-3.23.27-4.72.82c-1.5.55-2.85,1.32-4.07,2.34-1.22,1.01-2.2,2.21-2.95,3.58-.37.72-.56,1.32-.56,1.8s.19.82.56,1c.31.16.64.16.98.02s.78-.43,1.31-.86c.81-.81,1.51-1.38,2.1-1.71.59-.33,1.14-.49,1.64-.49.84,0,1.38.5,1.61,1.5.23,1-.06,2.71-.87,5.14l-7.48,22.63c-.69,2.03-1.04,3.71-1.08,5.05-.03,1.34.3,2.34.98,2.99.69.65,1.76.98,3.23.98Z"/>
      <path class="cls-1" d="M1076.6,365.89c-1.28,1.08-2.96,1.61-5.05,1.61-1.65,0-3.16-.44-4.54-1.31-1.37-.87-2.6-2.37-3.69-4.49-.69-1.43-1.4-2.47-2.15-3.11-.75-.64-1.62-.96-2.62-.96-.94,0-1.68.34-2.22,1.03-.55.69-.83,1.61-.87,2.76,0,1.62.57,3.17,1.71,4.65,1.14,1.48,2.8,2.68,5,3.6s4.88,1.38,8.06,1.38c3.62,0,6.73-.52,9.35-1.57,2.62-1.04,4.64-2.48,6.08-4.3s2.15-3.9,2.15-6.24c0-1.5-.25-2.86-.75-4.09-.5-1.23-1.4-2.53-2.71-3.9-1.31-1.37-3.18-2.98-5.61-4.81-2.06-1.62-3.62-2.99-4.7-4.11-1.08-1.12-1.82-2.15-2.22-3.08-.41-.94-.61-1.89-.61-2.85,0-1.87.69-3.42,2.08-4.65,1.39-1.23,3.25-1.85,5.59-1.85,1.68,0,3.11.47,4.28,1.4s2.17,2.28,3.02,4.02c.68,1.5,1.37,2.53,2.06,3.11.69.58,1.48.86,2.38.86,1,0,1.78-.34,2.34-1.03.56-.69.83-1.65.79-2.9,0-1.56-.52-3.01-1.57-4.35-1.04-1.34-2.58-2.42-4.6-3.23-2.03-.81-4.5-1.22-7.43-1.22-3.8,0-7.05.6-9.75,1.8-2.7,1.2-4.77,2.8-6.22,4.79-1.45,1.99-2.17,4.19-2.17,6.59,0,1.62.27,3.08.82,4.37.54,1.29,1.46,2.59,2.76,3.88,1.29,1.29,3.08,2.78,5.35,4.46,2.09,1.53,3.68,2.84,4.77,3.93,1.09,1.09,1.83,2.07,2.22,2.95.39.87.58,1.78.58,2.71,0,1.68-.64,3.06-1.92,4.14Z"/>
      <path class="cls-1" d="M1138.08,335.06c.19-.69.49-1.22.91-1.61.42-.39.83-.78,1.21-1.17.39-.39.62-.93.68-1.61.06-.81-.34-1.55-1.19-2.22-.86-.67-2.16-1.19-3.9-1.57-1.75-.37-3.96-.56-6.64-.56-3.52,0-6.91.56-10.17,1.68-3.26,1.12-6.26,2.68-9.02,4.67-2.76,1.99-5.19,4.31-7.29,6.94-2.1,2.63-3.8,5.45-5.1,8.46-1.29,3.01-2.08,6.08-2.36,9.23-.47,4.77.2,8.25,2.01,10.45s4.36,3.3,7.67,3.3c2.93,0,5.81-.83,8.65-2.48,2.83-1.65,5.47-4.07,7.9-7.25.9-1.17,1.75-2.44,2.55-3.8-.27.97-.5,1.84-.68,2.59-.31,1.28-.53,2.35-.66,3.23-.12.87-.19,1.67-.19,2.38,0,1.75.44,3.07,1.33,3.97.89.9,2.24,1.36,4.04,1.36,2.21,0,4.35-.61,6.43-1.82,2.07-1.22,3.67-2.84,4.79-4.86.37-.72.56-1.32.56-1.8s-.19-.82-.56-1.01c-.31-.16-.64-.17-.98-.05-.34.12-.78.44-1.31.94-.81.78-1.49,1.33-2.03,1.66-.55.33-1.1.49-1.66.49-.75,0-1.23-.48-1.45-1.45-.22-.97,0-2.71.66-5.24l5.8-22.86ZM1129.29,334.82c-.47,3.12-1.22,6.17-2.24,9.16-1.03,2.99-2.25,5.78-3.67,8.37-1.42,2.59-2.94,4.88-4.56,6.87-1.62,1.99-3.23,3.55-4.84,4.67-1.61,1.12-3.12,1.68-4.56,1.68-1.53,0-2.7-.65-3.53-1.96-.83-1.31-1.08-3.57-.77-6.78.25-2.59.83-5.17,1.73-7.74.9-2.57,2.07-4.99,3.51-7.25,1.43-2.26,3.03-4.26,4.79-6.01,1.76-1.75,3.62-3.12,5.56-4.11,1.95-1,3.9-1.5,5.87-1.5,1.09,0,1.89.36,2.38,1.08.5.72.61,1.89.33,3.51Z"/>
      <path class="cls-1" d="M1423.11,886.7c-17.35-9.5-39.14-14.25-65.38-14.25h-145.69v316.73h78.73v-109.95h66.96c20.21,0,37.7-2.94,52.49-8.82,14.78-5.88,26.92-13.8,36.42-23.75s16.59-21.11,21.27-33.48c4.67-12.37,7.01-24.89,7.01-37.56,0-18.4-4.3-35.44-12.9-51.13-8.6-15.68-21.57-28.28-38.91-37.78ZM1390.08,995.97c-3.17,5.73-7.85,10.03-14.03,12.9-6.19,2.87-13.96,4.3-23.3,4.3h-61.99v-74.66h61.99c14.17,0,24.73,3.32,31.67,9.95,6.93,6.64,10.41,15.69,10.41,27.15,0,7.85-1.58,14.63-4.75,20.36Z"/>
      <path class="cls-1" d="M1698.34,1070.4c14.78-5.88,26.92-13.8,36.42-23.75s16.59-21.11,21.27-33.48c4.67-12.37,7.01-24.89,7.01-37.56,0-18.4-4.3-35.44-12.9-51.13-8.6-15.68-21.57-28.28-38.91-37.78-17.35-9.5-39.14-14.25-65.38-14.25h-145.69v316.73h78.73v-109.95h40.02l63.14,109.95h86.87l-71.84-118.3c.42-.16.84-.31,1.25-.48ZM1578.88,938.5h61.99c14.17,0,24.73,3.32,31.67,9.95,6.93,6.64,10.41,15.69,10.41,27.15,0,7.85-1.58,14.63-4.75,20.36-3.17,5.73-7.85,10.03-14.03,12.9-6.19,2.87-13.96,4.3-23.3,4.3h-61.99v-74.66Z"/>
      <path class="cls-1" d="M2060.98,914.3c-14.78-14.32-32.05-25.41-51.81-33.26-19.76-7.84-40.95-11.76-63.57-11.76s-43.74,3.92-63.35,11.76c-19.61,7.85-36.88,18.93-51.81,33.26-14.93,14.33-26.62,31.38-35.07,51.13-8.45,19.76-12.67,41.56-12.67,65.38s4.22,45.63,12.67,65.38c8.44,19.76,20.13,36.81,35.07,51.13,14.93,14.33,32.2,25.42,51.81,33.26,19.6,7.85,40.72,11.76,63.35,11.76s43.73-3.92,63.35-11.76c19.6-7.84,36.88-18.93,51.81-33.26,14.93-14.32,26.62-31.37,35.07-51.13,8.44-19.75,12.67-41.55,12.67-65.38s-4.23-45.62-12.67-65.38c-8.45-19.75-20.06-36.8-34.84-51.13ZM2018,1079.22c-6.94,14.18-16.59,25.34-28.96,33.48-12.37,8.14-26.85,12.22-43.44,12.22s-31.52-4.07-43.89-12.22c-12.37-8.14-21.94-19.3-28.73-33.48-6.79-14.17-10.18-30.32-10.18-48.41s3.39-34.61,10.18-48.64,16.36-25.11,28.73-33.26c12.37-8.14,26.99-12.22,43.89-12.22s31.06,4.07,43.44,12.22c12.37,8.14,22.02,19.23,28.96,33.26,6.94,14.03,10.41,30.24,10.41,48.64s-3.47,34.24-10.41,48.41Z"/>
      <path class="cls-1" d="M2254.64,1090.53c0,7.54-1.29,14.03-3.85,19.46-2.57,5.43-6.19,9.5-10.86,12.22-4.68,2.71-10.03,4.07-16.06,4.07-5.13,0-9.95-1.05-14.48-3.17-4.52-2.11-8.37-5.35-11.54-9.73-3.17-4.37-5.36-9.73-6.56-16.06l-71.94,14.03c5.73,26.55,18.02,46.68,36.88,60.4,18.85,13.73,42.31,20.59,70.36,20.59,21.11,0,39.74-4.07,55.88-12.22,16.13-8.14,28.65-20.06,37.55-35.75,8.89-15.68,13.35-34.99,13.35-57.92v-214.02h-78.73v218.09Z"/>
      <polygon class="cls-1" points="2382.37 1189.17 2619.91 1189.17 2619.91 1123.11 2461.1 1123.11 2461.1 1059.31 2579.64 1059.31 2579.64 997.78 2461.1 997.78 2461.1 938.5 2619.91 938.5 2619.91 872.44 2382.37 872.44 2382.37 1189.17"/>
      <path class="cls-1" d="M2858.09,1103.88c-8.14,8-17.35,13.73-27.6,17.19-10.26,3.47-21.27,5.2-33.03,5.2-16.9,0-31.38-4.14-43.44-12.44-12.07-8.29-21.27-19.6-27.6-33.94-6.33-14.32-9.5-30.69-9.5-49.09s3.17-34.31,9.5-48.64c6.33-14.32,15.53-25.71,27.6-34.16,12.06-8.44,26.54-12.67,43.44-12.67,11.76,0,22.47,1.66,32.12,4.98,9.65,3.32,18.25,8.53,25.79,15.61,7.54,7.09,14.03,16.22,19.46,27.37l68.32-14.93c-10.86-30.77-28.96-54.98-54.3-72.62-25.34-17.65-55.81-26.47-91.4-26.47-23.53,0-45.1,3.92-64.7,11.76-19.61,7.85-36.42,19-50.45,33.48-14.03,14.48-24.89,31.6-32.58,51.35-7.69,19.76-11.54,41.4-11.54,64.93s3.85,45.63,11.54,65.38c7.69,19.76,18.55,36.81,32.58,51.13,14.03,14.33,30.84,25.42,50.45,33.26,19.61,7.85,41.17,11.76,64.7,11.76,36.49,0,67.57-9.28,93.21-27.83,25.63-18.55,43.89-44.72,54.75-78.5l-66.51-13.57c-5.73,12.97-12.67,23.46-20.81,31.45Z"/>
      <polygon class="cls-1" points="2958.44 872.44 2958.44 938.5 3056.63 938.5 3056.63 1189.17 3135.36 1189.17 3135.36 938.5 3234 938.5 3234 872.44 2958.44 872.44"/>
      <path class="cls-1" d="M710.1,845.76h-22.95v229.45h6.56v-92.11h16.72c12.24,0,21.25-3.38,27.04-10.16,5.79-6.77,8.69-17.04,8.69-30.81v-55.72c0-13.77-2.95-23.98-8.85-30.65-5.9-6.66-14.97-10-27.21-10ZM739.6,942.13c0,12.24-2.35,21.14-7.05,26.71-4.7,5.57-12.18,8.36-22.45,8.36h-16.39v-125.54h16.39c10.27,0,17.75,2.73,22.45,8.19,4.7,5.46,7.05,14.32,7.05,26.55v55.72Z"/>
      <path class="cls-1" d="M824.39,1057.51c-.11-2.4-.22-4.92-.33-7.54-.11-2.62-.16-5.57-.16-8.85v-36.71c0-10.05-1.59-18.19-4.75-24.42-3.17-6.23-7.92-10.54-14.26-12.95v-.66c6.33-2.4,11.09-6.72,14.26-12.95,3.17-6.23,4.75-14.47,4.75-24.75v-42.28c0-13.77-2.95-23.98-8.85-30.65-5.9-6.66-14.97-10-27.21-10h-22.95v229.45h6.56v-105.55h16.39c10.27,0,17.75,2.74,22.45,8.2,4.7,5.46,7.05,14.31,7.05,26.55v36.71c0,6.78.22,12.41.66,16.88.43,4.48,1.09,10.22,1.97,17.21h6.56v-1.31c-.66-3.49-1.15-6.5-1.48-9.01-.33-2.51-.55-4.97-.66-7.38ZM771.46,963.76v-112.1h16.39c10.27,0,17.75,2.73,22.45,8.19,4.7,5.46,7.05,14.32,7.05,26.55v42.28c0,12.24-2.35,21.14-7.05,26.71-4.7,5.57-12.18,8.36-22.45,8.36h-16.39Z"/>
      <path class="cls-1" d="M870.97,840.84c-10.05,0-17.49,3.33-22.29,10-4.81,6.67-7.21,16.88-7.21,30.65v157.67c0,13.77,2.46,24.04,7.38,30.81,4.92,6.77,12.4,10.16,22.45,10.16s17.15-3.33,21.96-10c4.8-6.66,7.21-16.99,7.21-30.98v-157.67c0-13.77-2.41-23.98-7.21-30.65-4.81-6.66-12.24-10-22.29-10ZM893.92,1039.16c0,12.24-1.8,21.14-5.41,26.71-3.61,5.57-9.45,8.36-17.54,8.36s-13.93-2.79-17.54-8.36-5.41-14.47-5.41-26.71v-157.67c0-12.24,1.8-21.09,5.41-26.55,3.61-5.46,9.45-8.19,17.54-8.19s13.93,2.74,17.54,8.19c3.61,5.46,5.41,14.32,5.41,26.55v157.67Z"/>
      <path class="cls-1" d="M968.52,1039.16c0,12.24-1.86,21.14-5.57,26.71-3.72,5.57-9.51,8.36-17.37,8.36s-13.66-2.79-17.37-8.36c-3.72-5.57-5.57-14.47-5.57-26.71v-34.75h-6.56v34.75c0,13.77,2.46,24.04,7.38,30.81s12.4,10.16,22.45,10.16,17.15-3.33,21.96-10c4.8-6.66,7.21-16.99,7.21-30.98v-193.39h-6.56v193.39Z"/>
      <polygon class="cls-1" points="1000.31 960.16 1031.12 960.16 1031.12 954.26 1000.31 954.26 1000.31 851.66 1033.09 851.66 1033.09 845.76 993.76 845.76 993.76 1075.21 1036.04 1075.21 1036.04 1069.31 1000.31 1069.31 1000.31 960.16"/>
      <path class="cls-1" d="M1078.82,840.84c-10.05,0-17.49,3.33-22.29,10-4.81,6.67-7.21,16.88-7.21,30.65v157.67c0,13.77,2.46,24.04,7.38,30.81,4.92,6.77,12.4,10.16,22.45,10.16s17.15-3.39,21.96-10.16c4.8-6.77,7.21-17.04,7.21-30.81v-44.58h-6.56v44.58c0,12.24-1.86,21.14-5.57,26.71-3.72,5.57-9.51,8.36-17.37,8.36s-13.66-2.79-17.37-8.36c-3.72-5.57-5.57-14.47-5.57-26.71v-157.67c0-12.02,1.85-20.81,5.57-26.39,3.71-5.57,9.5-8.36,17.37-8.36s13.65,2.79,17.37,8.36c3.71,5.57,5.57,14.37,5.57,26.39v41.3h6.56v-41.3c0-13.77-2.41-23.98-7.21-30.65-4.81-6.66-12.24-10-22.29-10Z"/>
      <polygon class="cls-1" points="1121.59 851.66 1151.09 851.66 1151.09 1075.21 1157.65 1075.21 1157.65 851.66 1187.15 851.66 1187.15 845.76 1121.59 845.76 1121.59 851.66"/>
      <path class="cls-1" d="M2467.93,422.62h19.84c14.52,0,25.21-4.02,32.09-12.06,6.87-8.03,10.31-20.22,10.31-36.56v-66.12c0-16.33-3.5-28.45-10.5-36.36-7-7.91-17.76-11.86-32.28-11.86h-27.22v272.25h7.78v-109.29ZM2467.93,266.66h19.45c12.18,0,21.06,3.25,26.64,9.72,5.57,6.48,8.36,16.99,8.36,31.5v66.12c0,14.52-2.79,25.09-8.36,31.7-5.58,6.61-14.46,9.92-26.64,9.92h-19.45v-148.96Z"/>
      <path class="cls-1" d="M2560.18,406.67h19.45c12.18,0,21.06,3.25,26.64,9.72,5.57,6.48,8.36,16.99,8.36,31.5v43.56c0,8.04.26,14.72.78,20.03.52,5.32,1.29,12.12,2.33,20.42h7.78v-1.56c-.78-4.14-1.36-7.71-1.75-10.7-.39-2.98-.65-5.89-.78-8.75-.13-2.85-.26-5.83-.39-8.95-.13-3.11-.19-6.61-.19-10.5v-43.56c0-11.92-1.88-21.58-5.64-28.97-3.76-7.39-9.4-12.51-16.92-15.36v-.78c7.52-2.85,13.16-7.97,16.92-15.36,3.75-7.39,5.64-17.17,5.64-29.36v-50.17c0-16.33-3.5-28.45-10.5-36.36-7-7.91-17.76-11.86-32.28-11.86h-27.22v272.25h7.78v-125.23ZM2560.18,266.66h19.45c12.18,0,21.06,3.25,26.64,9.72,5.57,6.48,8.36,16.99,8.36,31.5v50.17c0,14.52-2.79,25.09-8.36,31.7-5.58,6.61-14.46,9.92-26.64,9.92h-19.45v-133.01Z"/>
      <path class="cls-1" d="M2678.65,537.74c11.67,0,20.35-3.96,26.06-11.86,5.7-7.91,8.56-20.16,8.56-36.75v-187.07c0-16.33-2.86-28.45-8.56-36.36-5.71-7.91-14.52-11.86-26.45-11.86s-20.75,3.96-26.45,11.86c-5.71,7.91-8.56,20.03-8.56,36.36v187.07c0,16.33,2.92,28.53,8.75,36.56,5.83,8.03,14.71,12.06,26.64,12.06ZM2651.03,302.05c0-14.52,2.14-25.02,6.42-31.5,4.28-6.48,11.21-9.72,20.81-9.72s16.53,3.25,20.81,9.72c4.28,6.48,6.42,16.99,6.42,31.5v187.07c0,14.52-2.14,25.09-6.42,31.7-4.28,6.61-11.22,9.92-20.81,9.92s-16.53-3.31-20.81-9.92c-4.28-6.61-6.42-17.17-6.42-31.7v-187.07Z"/>
      <path class="cls-1" d="M2767.17,537.74c11.67,0,20.35-3.96,26.06-11.86,5.7-7.91,8.56-20.16,8.56-36.75v-229.46h-7.78v229.46c0,14.52-2.21,25.09-6.61,31.7-4.41,6.61-11.28,9.92-20.61,9.92s-16.21-3.31-20.61-9.92c-4.41-6.61-6.61-17.17-6.61-31.7v-41.23h-7.78v41.23c0,16.33,2.92,28.53,8.75,36.56,5.83,8.03,14.71,12.06,26.64,12.06Z"/>
      <polygon class="cls-1" points="2874.11 524.91 2831.72 524.91 2831.72 395.4 2868.28 395.4 2868.28 388.4 2831.72 388.4 2831.72 266.66 2870.61 266.66 2870.61 259.66 2823.94 259.66 2823.94 531.91 2874.11 531.91 2874.11 524.91"/>
      <path class="cls-1" d="M2925.26,537.74c11.67,0,20.35-4.02,26.06-12.06,5.7-8.03,8.56-20.22,8.56-36.56v-52.89h-7.78v52.89c0,14.52-2.21,25.09-6.61,31.7-4.41,6.61-11.28,9.92-20.61,9.92s-16.21-3.31-20.61-9.92c-4.41-6.61-6.61-17.17-6.61-31.7v-187.07c0-14.26,2.2-24.7,6.61-31.31,4.41-6.61,11.28-9.92,20.61-9.92s16.2,3.31,20.61,9.92c4.41,6.61,6.61,17.05,6.61,31.31v49h7.78v-49c0-16.33-2.86-28.45-8.56-36.36-5.71-7.91-14.52-11.86-26.45-11.86s-20.75,3.96-26.45,11.86c-5.71,7.91-8.56,20.03-8.56,36.36v187.07c0,16.33,2.92,28.53,8.75,36.56,5.83,8.03,14.71,12.06,26.64,12.06Z"/>
      <polygon class="cls-1" points="3010.62 531.91 3018.4 531.91 3018.4 266.66 3053.41 266.66 3053.41 259.66 2975.62 259.66 2975.62 266.66 3010.62 266.66 3010.62 531.91"/>
      <path class="cls-1" d="M2477.79,739.65h12.32c14.14,0,24.98-4.11,32.51-12.32,7.53-8.21,11.29-20.3,11.29-36.28v-53.04c0-15.97-3.82-28-11.46-36.1-7.65-8.1-18.54-12.15-32.68-12.15h-35.25v239.55h23.27v-89.66ZM2477.79,608.93h11.98c7.3,0,12.6,1.94,15.91,5.82,3.3,3.88,4.96,10.27,4.96,19.16v61.26c0,8.9-1.66,15.35-4.96,19.33-3.31,3.99-8.61,5.99-15.91,5.99h-11.98v-111.56Z"/>
      <path class="cls-1" d="M2627.06,811.86c-.23-2.51-.4-5.13-.51-7.87-.12-2.74-.17-5.82-.17-9.24v-38.67c0-10.27-1.88-18.82-5.65-25.67-3.76-6.84-9.3-11.52-16.6-14.03v-.68c7.3-2.74,12.83-7.41,16.6-14.03,3.76-6.61,5.65-15.17,5.65-25.67v-37.64c0-16.2-3.82-28.35-11.46-36.45-7.65-8.1-18.54-12.15-32.68-12.15h-35.25v239.55h23.27v-103.69h11.98c7.3,0,12.6,2,15.91,5.99,3.3,3.99,4.96,10.44,4.96,19.33v43.8c0,6.84.22,12.66.68,17.45.46,4.79,1.14,10.5,2.05,17.11h23.27v-1.37c-.46-3.19-.86-6.04-1.2-8.56-.34-2.51-.63-5.02-.86-7.53ZM2603.11,681.13c0,8.9-1.66,15.35-4.96,19.33-3.31,3.99-8.61,5.99-15.91,5.99h-11.98v-97.53h11.98c7.3,0,12.6,1.94,15.91,5.82,3.3,3.88,4.96,10.27,4.96,19.16v47.23Z"/>
      <path class="cls-1" d="M2678.9,834.45c12.77,0,22.59-3.94,29.43-11.81,6.84-7.87,10.27-19.68,10.27-35.42v-155.71c0-15.74-3.42-27.49-10.27-35.25-6.84-7.75-16.66-11.64-29.43-11.64s-22.93,3.94-29.77,11.81c-6.84,7.87-10.27,19.57-10.27,35.08v155.71c0,15.74,3.48,27.55,10.44,35.42,6.96,7.87,16.82,11.81,29.6,11.81ZM2662.48,628.78c0-8.9,1.25-15.28,3.76-19.16,2.51-3.88,6.61-5.82,12.32-5.82s9.87,1.94,12.49,5.82c2.62,3.88,3.94,10.27,3.94,19.16v161.18c0,8.9-1.32,15.35-3.94,19.34-2.62,3.99-6.79,5.99-12.49,5.99s-9.81-1.99-12.32-5.99c-2.51-3.99-3.76-10.44-3.76-19.34v-161.18Z"/>
      <path class="cls-1" d="M2769.69,834.45c12.32,0,22.01-3.88,29.09-11.63,7.07-7.75,10.61-19.62,10.61-35.59v-197.46h-23.61v200.2c0,8.9-1.32,15.35-3.94,19.34-2.63,3.99-6.79,5.99-12.49,5.99s-9.53-1.99-12.15-5.99c-2.63-3.99-3.94-10.44-3.94-19.34v-38.33h-23.61v35.59c0,15.97,3.53,27.84,10.61,35.59,7.07,7.75,16.88,11.63,29.43,11.63Z"/>
      <polygon class="cls-1" points="2881.08 810.15 2846.17 810.15 2846.17 715.7 2875.95 715.7 2875.95 696.53 2846.17 696.53 2846.17 608.93 2878 608.93 2878 589.76 2822.9 589.76 2822.9 829.32 2881.08 829.32 2881.08 810.15"/>
      <path class="cls-1" d="M2930.94,584.63c-12.55,0-22.3,3.82-29.26,11.46-6.96,7.65-10.44,19.45-10.44,35.42v155.71c0,15.97,3.54,27.84,10.61,35.59,7.07,7.75,16.88,11.63,29.43,11.63s22.3-3.88,29.26-11.63c6.96-7.75,10.44-19.62,10.44-35.59v-45.86h-23.61v48.59c0,8.9-1.32,15.35-3.94,19.34-2.62,3.99-6.79,5.99-12.49,5.99s-9.53-1.99-12.15-5.99c-2.63-3.99-3.94-10.44-3.94-19.34v-161.18c0-8.67,1.31-15,3.94-18.99,2.62-3.99,6.67-5.99,12.15-5.99s9.87,2,12.49,5.99c2.62,3.99,3.94,10.33,3.94,18.99v45.17h23.61v-42.44c0-15.97-3.48-27.77-10.44-35.42-6.96-7.64-16.83-11.46-29.6-11.46Z"/>
      <polygon class="cls-1" points="3032.78 829.32 3032.78 608.93 3061.18 608.93 3061.18 589.76 2981.1 589.76 2981.1 608.93 3009.51 608.93 3009.51 829.32 3032.78 829.32"/>
      <path class="cls-1" d="M1295.11,449.61c-11.55,0-21.25-1.84-29.11-5.53-7.86-3.68-14.06-8.47-18.61-14.37-4.55-5.9-7.55-12.28-9.03-19.16l-33.53,12.53c2.7,11.55,8.16,21.68,16.4,30.4,8.23,8.72,18.73,15.54,31.5,20.45,12.77,4.91,27.14,7.37,43.11,7.37,19.4,0,35.56-3.44,48.45-10.32,12.9-6.87,22.53-15.96,28.92-27.27,6.38-11.3,9.58-23.82,9.58-37.58,0-12.77-2.46-23.4-7.37-31.87-4.92-8.47-11.37-15.53-19.34-21.19-7.99-5.65-16.89-10.32-26.71-14-9.83-3.68-19.9-7.12-30.21-10.32-9.83-2.95-18.86-6.02-27.08-9.21-8.23-3.19-14.8-7.24-19.71-12.16-4.92-4.91-7.37-11.66-7.37-20.27,0-7.86,2.15-14.61,6.45-20.27,4.29-5.65,10.07-10.01,17.32-13.08,7.24-3.07,15.41-4.48,24.5-4.24,8.84,0,16.82,1.47,23.95,4.42,7.12,2.95,13.02,6.82,17.69,11.61,4.66,4.79,7.74,9.89,9.21,15.29l33.53-12.16c-3.68-10.56-9.4-19.59-17.13-27.08-7.74-7.49-17.26-13.27-28.56-17.32-11.3-4.05-24.08-6.08-38.32-6.08-16.95,0-31.87,2.89-44.77,8.66-12.9,5.77-22.91,14.06-30.03,24.87-7.13,10.81-10.69,23.71-10.69,38.69,0,12.04,2.21,22.05,6.63,30.03,4.42,7.99,10.44,14.5,18.05,19.53,7.61,5.04,16.15,9.21,25.61,12.53,9.45,3.32,19.1,6.45,28.92,9.4,11.3,3.2,21.31,6.82,30.03,10.87,8.72,4.05,15.6,8.97,20.63,14.74,5.03,5.77,7.55,13.08,7.55,21.92,0,10.81-4.12,20.21-12.34,28.19-8.23,7.99-20.95,11.98-38.14,11.98Z"/>
      <path class="cls-1" d="M1452.46,413.13h127.65l23.21,65.59h37.58l-92.85-257.93h-63.75l-92.85,257.93h37.58l23.42-65.59ZM1510.1,251.74h12.9l46.16,130.44h-105.64l46.58-130.44Z"/>
    </g>
  </g>
</svg>