<?xml version="1.0" encoding="UTF-8"?>
<svg id="Capa_2" data-name="Capa 2" xmlns="http://www.w3.org/2000/svg" viewBox="0 0 857.39 942.71">
  <defs>
    <style>
      .cls-1 {
        fill: #fee956;
      }

      .cls-2 {
        fill: #fbcd06;
      }
    </style>
  </defs>
  <g id="Layer_1" data-name="Layer 1">
    <g>
      <path class="cls-2" d="M54.36,181.38c-13.08,23.38-24.79,53.21-30.9,77.51-6.03,24.01-10.11,49.01-11.12,73.81-3.78,93.33,2.92,189.21.06,282.8,4.9,76.95,35.92,152.04,88.4,208.35,3.07,3.3,8.13,8.9,11.5,11.48,1,.77,1.27,1.94,3,1.49l4.04-61.4c4.86-173.17,2.05-346.69,2.96-520.11l4.53,1.96c40.28,35.88,76.68,82.79,117.35,117.46.95.81,3.92,3.71,5.02,1.48,35.88,64.05,70.5,128.95,104.93,193.83l33.96-61.94c3.56.41,4.9,4.48,7.99,5.99-12.07,22.44-23.45,45.85-35.45,67.96-7.75,14.27-15.71,28.43-22.99,42.96-1.61,1.44-12.69,1.57-14.5.48l-190.84-352.19c.81,109.73-1.1,219.53-.06,329.27.68,72.12,1.98,144.89,6.03,216.78.77,13.67.39,27.51,2.96,41.01,96.58,78.22,233.62,92.83,346.12,40.27,53.87-25.17,104.59-68.24,137.53-117.76,3.82-.51,5.01,3.47,7.99,5-37,55.57-86.37,99.48-148.2,126.07C265.41,1008.22,22.95,860.12,2.41,625.5c1.25-97.63-5.08-198.4-1.06-295.79,2.25-54.44,18.34-107.32,45.01-154.32,3.31.55,5.21,4.17,7.99,5.99Z"/>
      <path class="cls-1" d="M388.08,508.1c48.09-91.2,98.35-181.29,145.88-272.77h46.96c-.14,52.21-.54,104.19-.96,156.41-.81,102.22-20.5,223.63,85.22,281.39,64.05,35,133.83,15.34,183.16-34.07,2.66,2.14,10.38,6.5,8.86,9.89-2.29,5.12-23.58,24.62-29,28.98-110.08,88.44-253.19,17.61-287.16-109.46-16.67-62.35-14.17-146.38-15.11-211.7-.39-27.14.38-54.34.03-81.47-6.45,8.51-10.48,18.69-15.46,28-37.83,70.69-76.54,140.38-114.43,210.8-3.09-1.51-4.44-5.59-7.99-5.99Z"/>
      <path class="cls-2" d="M689.83,308.27l-11.99-6.99C658.08,150.85,536.37,29.51,385.09,12.52c.56-4.97-6.56-6.02-6-10.99,162.77,15.02,293.54,143.98,310.74,306.74Z"/>
      <path class="cls-1" d="M122.3,255.31c.03-6.65-.03-13.34,0-19.98h51.96l74.94,140.88c-1.1,2.23-4.07-.67-5.02-1.48-40.67-34.66-77.07-81.58-117.35-117.46l-4.53-1.96Z"/>
      <path class="cls-1" d="M379.09,1.53c-.56,4.97,6.56,6.02,6,10.99C251.6-2.48,119.74,64.53,54.36,181.38c-2.78-1.82-4.69-5.44-7.99-5.99C114.06,56.06,241.56-11.17,379.09,1.53Z"/>
      <path class="cls-1" d="M689.83,308.27c.79,7.47.85,15.01,2.04,22.44-3.33,92.42,4.29,187.78,0,279.85-.12,2.53-1.44,17.73-2.15,18.33-.49.42-8.01.33-8.95-.33-2.62-1.82.02-14.48.11-18,2.45-93.15-1.97-186.67,0-279.86-1.33-9.78-1.75-19.66-3.04-29.43l11.99,6.99Z"/>
      <path class="cls-1" d="M624.89,782.87c5.66-8.51,10.47-18.05,15.48-26.99,2.77-2.69,11.08,1.57,10.12,5.03-5.55,8.51-10.03,17.77-15.58,26.25-.58.88-1.96.61-2.02.7-2.98-1.53-4.17-5.51-7.99-5Z"/>
    </g>
  </g>
</svg>