<?xml version="1.0" encoding="UTF-8"?>
<svg id="Capa_2" data-name="Capa 2" xmlns="http://www.w3.org/2000/svg" viewBox="0 0 120.73 35.89">
  <defs>
    <style>
      .cls-1 {
        fill: #fff;
      }
    </style>
  </defs>
  <g id="svg2">
    <g>
      <path class="cls-1" d="M22.21,10.78c-3.36,0-6.27,3.44-6.26,9.64,0,2.62,1.36,4.34,4.06,4.34,4.86,0,6.3-6.85,6.31-9.67,0-2.3-1.36-4.31-4.11-4.31Z"/>
      <path class="cls-1" d="M53.65,24.86c0,2.21,4.78,2.32,5.97-2.75-2.87.87-5.97,1.04-5.97,2.75Z"/>
      <path class="cls-1" d="M101.99,11.05h-4.84l-.82,3.78h4.97c3.14,0,3.72-3.78.69-3.78Z"/>
      <path class="cls-1" d="M100.81,19.81h-5.55l-.91,4.21h5.7c2.96,0,3.27-4.2.76-4.21Z"/>
      <path class="cls-1" d="M102.79,0H17.95C8.04,0,0,8.03,0,17.94s8.04,17.94,17.95,17.94h84.85c9.91,0,17.94-8.03,17.94-17.94S112.7,0,102.79,0ZM19.68,31.04c-8.32,0-11.78-5.25-11.84-11.04-.05-8.43,5.56-15.65,14.85-15.63,8.13.02,11.9,5.08,11.84,11.13-.06,5.92-3.69,15.59-14.85,15.55ZM58.11,30.49v-1.17c-4.56,3.28-11.72,1.78-11.71-3.85.01-4.66,4.63-5.68,5.7-5.87,5-.91,8.43-.82,8.75-2.21.4-1.73-4.33-1.89-4.68.68h-9.92c-1.47,0-3.37.72-4.16,4.47l-1.71,7.97h-7.25l3.93-18.3h6.28v1.88c.91-.98,2.83-3.28,6.65-2.13l-.79,3.68c2.31-3.26,5.72-3.93,9.62-3.95,4.98-.01,9.92,1.96,8.92,6.59l-2.08,9.66c-.29,1.32-.02,1.87.29,2.55h-7.86ZM74.91,30.5h-7.41l5.49-25.41h7.42l-5.49,25.41ZM99.85,30.5h-14.65l2.3-10.7h-6.11l1.08-4.97h6.1l2.09-9.73h9.97c3.22,0,10.59-.55,10.63,5.87,0,2.79-1.05,4.86-4.08,6.5,1.52,1.19,2.75,2.12,2.75,5.09,0,2.21-1.75,7.94-10.07,7.94ZM113.83,21.16c-1.8,0-3.26-1.46-3.26-3.26s1.46-3.26,3.26-3.26,3.26,1.46,3.26,3.26-1.46,3.26-3.26,3.26Z"/>
      <g>
        <path class="cls-1" d="M113.83,15.17c-1.51,0-2.73,1.23-2.73,2.73s1.23,2.73,2.73,2.73,2.74-1.23,2.74-2.73-1.23-2.73-2.74-2.73ZM115.37,17.12c-.18.64-.57.84-.97.86l.48,1.32h-.72l-.42-1.32h-.62l-.28,1.32h-.62l.67-3.14h1.42c.27,0,.62,0,.82.15.24.18.32.48.23.8Z"/>
        <path class="cls-1" d="M114.12,16.62h-.7l-.19.89h.85c.35,0,.61-.08.7-.47.09-.42-.36-.42-.66-.42Z"/>
      </g>
    </g>
  </g>
</svg>